<?xml version="1.0" standalone="no"?>
<!DOCTYPE svg PUBLIC "-//W3C//DTD SVG 1.1//EN" "http://www.w3.org/Graphics/SVG/1.1/DTD/svg11.dtd" >
<svg>
<metadata>
Created by FontForge 20110222 at Thu Mar  5 15:33:06 2015
 By deploy user
Created with the help of MyScriptFont.com
Copyright belongs to the Creator.
</metadata>
<defs>
<font id="Stahl" horiz-adv-x="304" >
  <font-face 
    font-family="Stahl"
    font-weight="500"
    font-stretch="normal"
    units-per-em="1000"
    panose-1="2 0 6 3 0 0 0 0 0 0"
    ascent="800"
    descent="-200"
    x-height="377"
    cap-height="710.5"
    bbox="8.92857 -69 763.564 800.095"
    underline-thickness="50"
    underline-position="-100"
    unicode-range="U+0020-20AC"
  />
<missing-glyph horiz-adv-x="500" 
d="M50 0v533h400v-533h-400zM100 50h300v433h-300v-433z" />
    <glyph glyph-name=".notdef" horiz-adv-x="500" 
d="M50 0v533h400v-533h-400zM100 50h300v433h-300v-433z" />
    <glyph glyph-name=".null" horiz-adv-x="0" 
 />
    <glyph glyph-name="nonmarkingreturn" horiz-adv-x="333" 
 />
    <glyph glyph-name="space" unicode=" " horiz-adv-x="420" 
 />
    <glyph glyph-name="exclam" unicode="!" horiz-adv-x="175" 
d="M119 624q11 4 24.5 1t18.5 -11q7 -10 -1 -38q-13 -46 -49 -218q-17 -84 -28.5 -118.5t-21.5 -34.5q-23 0 -24.5 47.5t18.5 130.5q9 37 27 124q13 70 20 91t16 26zM18 78q11 12 26 12.5t22 -11.5q8 -11 -1 -20t-27 -9q-21 0 -26.5 7.5t6.5 20.5z" />
    <glyph glyph-name="numbersign" unicode="#" horiz-adv-x="479" 
d="M150 529q4 19 7 30t11.5 22t20.5 11q44 0 21 -95q-11 -49 -11 -70v-20q52 1 104 3l30 57q26 51 36 64t22 13q24 0 27 -20.5t-15 -56.5q-14 -28 -9 -36.5t41 -14.5q21 -3 27.5 -7t6.5 -11t-7 -11.5t-28 -10.5q-73 -23 -74 -37q-1 -10 29 -23t30 -20q0 -9 -17.5 -20.5
t-36.5 -14.5q-15 -2 -19.5 -6.5t-7.5 -19.5q-4 -24 -16 -39q-9 -11 -12 -12t-11 7q-13 11 -22 32l-10 20l-104 4l-12 -20q-22 -36 -3 -70q8 -14 8.5 -30t-7.5 -23q-9 -7 -29 -5q-16 1 -22.5 11t-9.5 35.5t-4 84.5q-1 72 -3 86t-11 14q-16 0 -32.5 7.5t-22.5 17.5
q-14 21 9 36.5t68 15.5h27l12 44q12 36 19 78zM279 327q0 8 -7.5 10t-38.5 3q-28 1 -37 0t-9 -6q0 -7 23 -14.5t46 -7t23 14.5z" />
    <glyph glyph-name="dollar" unicode="$" horiz-adv-x="312" 
d="M209 679q20 26 38.5 19.5t22.5 -42.5q3 -26 17 -55q12 -24 14 -53.5t-6 -37.5q-7 -7 -32 -3l-25 3l-7 -35q-14 -75 -14 -109.5t16 -75.5q16 -46 19 -88q2 -28 0.5 -39.5t-9.5 -24.5q-21 -34 -68 -43q-24 -5 -52 -25q-24 -17 -32.5 -13.5t-13.5 33.5q-3 22 -35 56
q-20 21 -26 31.5t-6 23.5q0 14 2.5 18t11.5 4q15 0 32 -15q18 -15 30 -14t29 18l20 19v64q0 46 -3 61.5t-21 51.5q-42 88 -33 144q4 29 27 54t57 39q32 14 47 34zM179 565q0 16 -8.5 19t-19.5 -9q-13 -15 -8.5 -55.5t19.5 -40.5q5 0 10 26t7 60z" />
    <glyph glyph-name="percent" unicode="%" horiz-adv-x="448" 
d="M101 621q29 18 48 18q27 0 52 -24t20 -45q-4 -14 6 -32q19 -37 -9 -75q-32 -44 -76 -65.5t-80.5 -12t-46.5 47.5q-14 52 10.5 105.5t75.5 82.5zM145 549q-20 19 -26 19t-24.5 -19.5t-25 -32.5t-6.5 -36t7 -30t32 -7q15 0 23.5 4t19.5 15q20 21 20 44t-20 43zM349 545
q21 22 31 28.5t23 6.5q35 0 35 -23q0 -7 -82 -93q-139 -146 -171.5 -183.5t-38.5 -58.5q-7 -26 -14 -33.5t-24 -7.5q-49 0 -21 57q18 39 66 92q12 12 48.5 52.5t53.5 59.5q48 53 94 103zM333 330q20 5 30 5t29 -5q19 -6 26.5 -17t7.5 -33q0 -20 -36 -68q-39 -53 -70 -70.5
t-68 -7.5q-36 9 -36 53q0 38 39 86t78 57zM349 269q0 7 -8 7q-14 0 -33 -34q-4 -8 -4 -10.5t5 -2.5q7 0 23.5 16.5t16.5 23.5z" />
    <glyph glyph-name="ampersand" unicode="&#x26;" horiz-adv-x="305" 
d="M131 635q23 16 49 16q27 0 38.5 -7t17.5 -27q6 -24 -6 -65.5t-60 -161.5q-53 -131 -53 -144q0 -9 23 -25t36 -16q12 0 30 27q16 22 28 30t31 8q11 0 14.5 -2.5t3.5 -10.5q0 -10 -13 -32.5t-30 -41.5q-13 -14 -9.5 -33.5t20.5 -27.5q14 -6 31 -20l13 -13q-13 -14 -25 -27
l-38 21q-34 19 -53 19.5t-46 -16.5q-28 -18 -41.5 -20.5t-31.5 5.5q-33 16 -40 41t7 76q6 18 5 30.5t-10 42.5q-9 29 -11 49.5t0 65.5q1 48 5.5 68t19.5 61q19 46 40.5 76t54.5 54zM162 546q4 24 -8 21q-19 -3 -46 -52q-8 -14 -15 -30q-11 -29 -14.5 -46.5t-3.5 -50.5
q0 -52 8 -52t15 19q0 3 12 35t22 60t19.5 57.5t10.5 38.5zM105 142q0 6 -4.5 8t-10 0t-7.5 -8q-6 -15 6 -14t15 12q1 1 1 2z" />
    <glyph glyph-name="parenleft" unicode="(" horiz-adv-x="307" 
d="M233 639q48 9 61 -13q11 -18 -18 -34q-9 -4 -20 -7q-19 -6 -34.5 -22t-33.5 -48q-5 -8 -18 -30.5t-17 -30.5q-26 -44 -48 -109.5t-31 -130.5q-4 -26 -3 -38.5t8 -30.5q11 -29 32 -54q21 -26 21 -40q0 -9 -3 -11t-16 1q-74 15 -95 87t13 195q10 35 44.5 106.5t70.5 130.5
q24 40 43 57.5t44 21.5z" />
    <glyph glyph-name="parenright" unicode=")" horiz-adv-x="270" 
d="M124 692q6 5 21.5 6.5t27.5 -3.5q15 -6 38 -49t34 -87q25 -100 8 -208.5t-73 -211.5q-34 -60 -75 -98.5t-73 -38.5q-41 0 -6 31q32 28 47.5 47t38.5 59q70 119 81 283q4 61 -9.5 110.5t-48.5 100.5q-28 42 -11 59z" />
    <glyph glyph-name="asterisk" unicode="*" horiz-adv-x="307" 
d="M81 639q18 17 32.5 7t28.5 -50q13 -37 23 -39q8 -2 34 29q40 46 51 56t24 8q20 -2 23 -13t-11 -29q-61 -74 -61 -108q0 -17 -3.5 -22.5t-19.5 -13.5q-24 -13 -29 -33q-6 -23 -11 -28q-9 -10 -23 -7t-26 18q-10 13 -15 15t-16 -3q-16 -7 -38.5 -6.5t-29.5 8.5
q-16 19 32 54q26 19 30 28.5t-8 25.5q-5 6 -7.5 12t-2.5 14t0.5 11.5t3 16t3.5 15.5q3 21 16 34z" />
    <glyph glyph-name="plus" unicode="+" horiz-adv-x="311" 
d="M111 572q6 8 25.5 7.5t26.5 -8.5q11 -13 3 -98q-4 -52 4 -58q8 -7 67 -9q59 -3 62 -7q14 -14 -42 -33q-13 -4 -29 -8q-61 -16 -69 -24q-9 -10 -25 -119q-8 -58 -27 -69q-11 -6 -16 16q-1 3 -1 5q-4 25 -4 80q0 48 -5.5 58.5t-32.5 14.5q-23 4 -33 12q-10 11 0 25.5
t32 21.5q30 8 40 22t14 53q5 48 4 78q0 32 6 40z" />
    <glyph glyph-name="comma" unicode="," horiz-adv-x="169" 
d="M85 146q0 26 11.5 45.5t33.5 19.5q43 0 23 -84q-12 -51 -46 -119l-37 -74l-28 -2q-30 -2 -32 10t21 54q21 40 37.5 86t16.5 64z" />
    <glyph glyph-name="hyphen" unicode="-" horiz-adv-x="227" 
d="M51 330q21 5 75.5 2.5t71.5 -9.5q19 -9 19 -15q0 -8 -29.5 -18t-77.5 -18q-49 -8 -68 -5.5t-27 18.5q-6 10 -5 15t9 12q11 12 32 18z" />
    <glyph glyph-name="period" unicode="." horiz-adv-x="108" 
d="M27 145q14 14 34 18t31 -7q8 -8 6 -16.5t-17 -23.5q-13 -15 -33.5 -18.5t-30.5 7.5q-9 8 -6.5 16.5t16.5 23.5z" />
    <glyph glyph-name="slash" unicode="/" horiz-adv-x="303" 
d="M237 620q9 11 16 15t20 4q14 0 17 -3t3 -19q0 -24 -22 -59q-10 -16 -33.5 -61t-35.5 -62q-9 -12 -27.5 -56t-26.5 -55q-13 -19 -45 -101q-58 -147 -76 -147q-10 0 -16 31q-5 22 20.5 94t71.5 169q54 114 63 129q49 92 71 121z" />
    <glyph glyph-name="zero" unicode="0" horiz-adv-x="322" 
d="M165 610q52 38 91 -2q18 -19 35.5 -64.5t20.5 -80.5q5 -73 -34 -158.5t-99 -130.5q-52 -40 -101 -32q-48 8 -61.5 44.5t1.5 116.5q19 100 61 187.5t86 119.5zM229 524q-8 16 -14.5 23t-15.5 8q-14 2 -22 -8t-34 -62q-43 -87 -59 -164q-20 -93 3 -113q9 -9 13.5 -9t20.5 9
q47 25 89 109q62 120 19 207z" />
    <glyph glyph-name="one" unicode="1" 
d="M232 647q11 4 29 3t22 -6q18 -23 8 -76q-22 -108 -54 -232q-12 -49 -18 -98q-6 -50 -11 -66.5t-14 -22.5q-10 -6 -20.5 4t-12.5 68q-2 40 1.5 65.5t20.5 93.5q24 97 24 108q0 21 -42 -20l-33 -33q-46 -49 -72 -65t-40 -5q-34 28 41 84q32 23 55 53q7 8 30.5 39t35.5 47
q43 56 50 59z" />
    <glyph glyph-name="two" unicode="2" 
d="M148 619q12 3 20 4.5t18 1t13 -0.5t18 -2.5t19 -3.5q29 -4 38.5 -11.5t15.5 -28.5q16 -58 -21 -129q-17 -31 -49 -75.5t-60 -76.5q-63 -72 -59 -83q3 -8 65 -10q51 -3 79 -11.5t25 -21.5q-2 -12 -33 -16t-103 -3q-59 2 -76.5 4t-28.5 11q-24 18 -17 36.5t59 71.5
q159 164 159 250q0 29 -7 36q-13 12 -49 5t-59 -26q-15 -12 -35 -13.5t-29 9.5q-14 16 19 44t78 39z" />
    <glyph glyph-name="three" unicode="3" horiz-adv-x="322" 
d="M172 675q35 8 79 3t54 -18q8 -11 7.5 -37t-8.5 -49q-7 -21 -38.5 -63.5t-56.5 -67.5q-21 -20 -21 -26q0 -5 21 -28q27 -31 37 -56.5t10 -65.5q-1 -134 -120 -157q-61 -14 -93 12q-21 16 -30 61.5t6 57.5q9 8 19 0.5t16 -27.5q7 -22 25 -40q13 -13 18.5 -14.5t22.5 3.5
q74 24 74 106q0 28 -6 39.5t-40 57.5q-20 25 -20 48q0 15 7.5 27t36.5 43q39 41 62 82t14 52q-12 14 -40.5 5.5t-64.5 -35.5q-56 -42 -79 -19q-9 9 -6 18t21 29t44.5 37t48.5 22z" />
    <glyph glyph-name="four" unicode="4" horiz-adv-x="370" 
d="M182 618q12 8 25 8.5t20 -6.5h1q9 -10 1.5 -23t-62.5 -80q-20 -24 -42.5 -62.5t-30.5 -60.5t-8.5 -51t7.5 -36q8 -8 54.5 -7.5t62.5 9.5q18 9 34 40q20 40 40.5 67.5t31.5 30.5q19 4 26.5 -5t5.5 -35q-1 -32 7 -45q6 -7 5 -12t-11 -18q-14 -19 -35 -33q-20 -12 -29.5 -31
t-18.5 -66q-10 -52 -23 -67q-23 -28 -37 3q-8 18 -8 51t-7 38q-7 6 -56 9q-50 4 -70 16q-21 13 -35.5 31t-18.5 35q-4 19 7.5 55t34.5 73q25 42 71 103t58 69z" />
    <glyph glyph-name="five" unicode="5" horiz-adv-x="553" 
d="M463 749q4 3 39.5 0.5t39.5 -6.5q3 -4 -3 -13q-8 -13 -86.5 -28t-136.5 -15q-29 0 -36.5 -2.5t-17.5 -16.5q-6 -8 -51 -60.5t-55 -71.5l-15 -28l24 -22q28 -24 64 -46q79 -47 78 -117q-1 -30 -12.5 -52t-40.5 -47q-39 -33 -95.5 -61.5t-86.5 -29.5q-34 0 -51 26.5
t-8 66.5q6 32 16 44l10 13l14 -15q14 -15 17 -39q4 -29 15 -32.5t46 14.5q32 17 73 51.5t41 57.5q0 27 -22 50.5t-80 56.5q-49 28 -57.5 62.5t22.5 81.5q10 15 30 37t33.5 35.5t41.5 40t31 28.5l25 25l95 3q95 5 99 9z" />
    <glyph glyph-name="six" unicode="6" horiz-adv-x="409" 
d="M292 671q40 23 73.5 14.5t33.5 -42.5q0 -24 -15.5 -31.5t-36.5 7.5q-15 10 -32 1t-60 -51q-60 -58 -51 -73q4 -5 15 -8q45 -11 72 -53q11 -17 13.5 -29.5t2.5 -48.5t-3 -50t-15 -36q-15 -27 -55.5 -60.5t-73.5 -45.5q-27 -9 -60 -9.5t-47 8.5q-34 23 -41 66.5t14 96.5
q35 86 87 163q30 44 89.5 104t89.5 77zM219 436q-11 12 -19 11.5t-34 -14.5q-18 -9 -27 -18.5t-20 -32.5q-18 -35 -32.5 -77.5t-14.5 -58.5q0 -13 13 -27t25 -14q20 0 97 74q28 26 32.5 35t4.5 34q0 58 -25 88z" />
    <glyph glyph-name="seven" unicode="7" horiz-adv-x="419" 
d="M125 664q22 5 103 3q56 -1 73 -3.5t29 -10.5q25 -19 23.5 -67t-29.5 -107q-18 -41 -15 -47q3 -4 49 -5t48 -4q12 -13 -32 -32q-12 -5 -27 -11q-42 -14 -63 -30.5t-29 -39.5q-39 -115 -53 -130q-10 -11 -23 -11q-17 0 -21.5 11.5t-1.5 43.5q2 26 0 37t-12 32
q-16 31 -16 46q0 14 15.5 29t37.5 22q24 7 36 20t31 52q22 46 32.5 90t2.5 54t-52.5 9.5t-105.5 -11.5q-66 -12 -92 -6.5t-23 31.5q4 27 65 29q35 1 50 6z" />
    <glyph glyph-name="eight" unicode="8" horiz-adv-x="407" 
d="M189 655q33 9 65.5 1.5t52.5 -29.5q17 -17 27 -17q17 0 35.5 -8.5t23.5 -18.5q5 -9 4.5 -15t-6.5 -20q-11 -21 -46.5 -56.5t-72.5 -60.5q-43 -28 -49 -37q-8 -8 5 -68q10 -52 9.5 -103t-12.5 -69q-14 -21 -32.5 -28.5t-57.5 -7.5q-76 1 -106.5 37.5t-10.5 101.5
q10 33 27 57.5t56 60.5l38 36l-7 25q-7 26 -7.5 81.5t6.5 77.5q8 27 20.5 40t37.5 20zM278 566q-13 23 -19 29t-20 7q-21 2 -35 -12q-8 -9 -10.5 -20t-2.5 -42q0 -55 15.5 -59.5t61.5 38.5l27 24zM165 300q-7 20 -16 23q-7 1 -28.5 -20t-29.5 -37q-7 -13 -7 -42
q0 -26 12 -40.5t33 -14.5q24 0 34 16.5t10 52.5q0 41 -8 62z" />
    <glyph glyph-name="nine" unicode="9" horiz-adv-x="380" 
d="M239 633q23 14 49.5 17.5t42.5 -5.5q24 -12 24 -77q0 -34 9 -56q8 -19 4.5 -40t-25.5 -77q-4 -11 -18 -47.5t-20 -52.5q-36 -94 -107 -166q-41 -41 -82 -52.5t-67 11.5q-13 10 -26 49t-13 66q0 12 2.5 16t11.5 4q13 0 23 -11t25 -42q16 -31 24 -34q21 -8 65 37.5
t75 106.5q50 102 19 96q-1 -1 -2 -1q-62 -16 -95 -2q-73 30 -21 142q40 83 102 118zM279 557q-5 26 -14 28q-11 1 -41.5 -40.5t-39.5 -70.5q-9 -31 -3.5 -41.5t31.5 -12.5q18 -1 27 3.5t31 26.5q25 24 29.5 37t-6.5 30q-10 13 -14 40z" />
    <glyph glyph-name="colon" unicode=":" horiz-adv-x="95" 
d="M26 392q9 9 28 9q18 0 26.5 -9t1.5 -19q-5 -11 -28 -11q-20 0 -28.5 9.5t0.5 20.5zM15 262q14 17 34 -5l14 -14l-15 -14q-16 -15 -26 -9q-9 6 -11.5 19.5t4.5 22.5z" />
    <glyph glyph-name="semicolon" unicode=";" horiz-adv-x="191" 
d="M119 394q-7 24 14 29.5t37 -11.5q10 -11 11 -16.5t-7 -21.5q-8 -20 -27.5 -13t-27.5 33zM65 242q12 14 27.5 16t23.5 -9q12 -15 -11 -50q-11 -15 -27 -58q-26 -65 -49 -66q-16 -1 -19 36q-1 28 19 71q20 44 36 60z" />
    <glyph glyph-name="less" unicode="&#x3c;" horiz-adv-x="328" 
d="M122 482q10 9 26.5 20.5t40.5 24.5t42 15.5t30 -7.5q14 -18 -25 -42q-31 -17 -84 -58.5t-53 -48.5q0 -9 22 -19t95 -34q63 -21 84.5 -34t16.5 -26t-65.5 -6t-126.5 28q-61 19 -88 38t-27 41q0 13 9 23t48 40q33 26 55 45z" />
    <glyph glyph-name="equal" unicode="=" horiz-adv-x="395" 
d="M39 471q20 7 45 5q27 -4 104 -9q197 -13 197 -46q0 -7 -4.5 -10.5t-17.5 -5.5q-23 -4 -169 -3t-160 5q-26 7 -24 30.5t29 33.5zM34 317q9 10 19 11t48 -1q113 -7 191 -20q24 -4 26 -14t-18 -21q-20 -10 -111 -12q-82 -2 -113 1.5t-43 16.5q-11 12 -11 19.5t12 19.5z" />
    <glyph glyph-name="greater" unicode="&#x3e;" horiz-adv-x="346" 
d="M35 486q44 9 169 -37q97 -35 120.5 -62t-6.5 -68q-10 -15 -29.5 -27.5t-72.5 -39.5q-68 -34 -99.5 -42.5t-41.5 3.5q-13 16 8.5 35t74.5 40q28 10 58.5 31.5t30.5 30.5q0 8 -10 17q-9 7 -64.5 26t-82.5 23q-28 5 -49 15t-27.5 21.5t0.5 22.5q8 9 21 11z" />
    <glyph glyph-name="question" unicode="?" horiz-adv-x="232" 
d="M123 704q59 10 83 -11t12 -73q-12 -54 -70 -177q-37 -79 -50.5 -113t-15.5 -55q-3 -27 5 -36t37 -12q31 -5 37 -10q6 -7 -1 -17.5t-24 -18.5q-16 -8 -18 -14t7 -19q6 -8 5 -12t-9 -13q-10 -11 -29.5 -13t-27.5 8q-7 8 -3 31q2 15 -0.5 20.5t-13.5 12.5q-18 10 -29 31
q-7 15 -8 24t5 34q7 37 34 91q14 27 30.5 64.5t37 87t26.5 65.5q20 46 10.5 62t-48.5 2q-26 -10 -37.5 -5t-9.5 24q4 32 65 42z" />
    <glyph glyph-name="at" unicode="@" horiz-adv-x="773" 
d="M495 629q15 4 48.5 3.5t51.5 -4.5q22 -6 63 -36q55 -42 84 -100.5t19 -108.5q-8 -37 -20.5 -59t-43.5 -54q-71 -74 -135 -90.5t-96 31.5q-13 19 -24.5 22t-32.5 -7q-19 -10 -54.5 -13t-54.5 3q-46 15 -46 76q0 63 94 147q37 35 62 47t57 12q24 0 41 -12t31 -39
q18 -34 17.5 -59t-19.5 -60q-19 -36 -20 -54.5t14 -33.5l15 -13l25 11q53 24 95 88q16 25 19.5 37t3.5 45q0 47 -13 72q-11 22 -38.5 52t-45.5 39q-15 8 -59 8t-74 -8q-52 -13 -132 -61.5t-145.5 -104.5t-79.5 -89q-7 -19 -16.5 -68t-7.5 -57q6 -21 9 -33q7 -26 29.5 -49.5
t51.5 -34.5q33 -12 106 -12q47 0 72 3t69 15q60 17 104 24q34 4 49 9q13 4 13 -5q0 -5 -13.5 -12.5t-30 -14.5t-18.5 -8q-26 -18 -119.5 -41.5t-139.5 -23.5q-38 1 -88.5 12.5t-73.5 25.5q-37 21 -62.5 69t-25.5 93q0 35 17.5 81t43.5 80q28 36 91.5 86t112.5 75
q44 23 56 32q11 8 78.5 35.5t85.5 31.5zM474 430q-12 19 -19 19q-8 0 -45 -24t-37 -29t-23 -31q-23 -25 -30 -49q-5 -16 -4 -21.5t10 -15.5q11 -12 28 -14t33 6q13 6 56 49q30 29 36.5 39.5t6.5 26.5q0 23 -12 44z" />
    <glyph glyph-name="A" unicode="A" horiz-adv-x="398" 
d="M293 702q19 25 31.5 30.5t28.5 -3.5q14 -8 26.5 -63.5t6.5 -84.5q-4 -25 -11 -110.5t-11 -110.5q-7 -62 -7 -149q-1 -60 -2.5 -76.5t-8.5 -20.5q-10 -7 -22 4q-14 12 -19 38.5t-5 81.5q0 59 -6.5 70t-37.5 4q-26 -7 -49 -1q-44 12 -44 0q0 -13 -44.5 -107t-56.5 -106
q-11 -11 -25.5 -12t-23.5 9q-4 6 -2.5 13.5t10.5 26.5q25 48 65.5 137t43.5 99q4 14 16 36q9 18 25 60q31 83 58.5 136t63.5 99zM321 570q2 29 1 37t-7 8q-9 0 -19 -16.5t-38 -75.5q-59 -127 -60 -141q7 -10 24 -11q48 0 76 25q8 8 11 20.5t5 48.5q4 68 7 105z" />
    <glyph glyph-name="B" unicode="B" horiz-adv-x="329" 
d="M162 690q64 18 99 -6.5t35 -85.5q0 -40 -26 -116q-26 -78 -40 -106q-15 -30 -13 -42q2 -13 35 -38q31 -23 48.5 -54t18.5 -61q0 -28 -11 -44t-48 -40l-41 -26h-60q-40 0 -55 3t-40 16q-37 19 -45 29q-21 26 12 258q10 73 12 81q5 43 9 58q4 17 -6 37q-8 14 -7.5 21
t12.5 31q9 19 19.5 30.5t30.5 24.5q35 23 61 30zM227 632q-7 7 -31.5 7t-36.5 -7q-23 -13 -30.5 -25.5t-7.5 -38.5q0 -47 -36 -253q-18 -106 -21 -135.5t3 -36.5q5 -6 20.5 -8t59.5 -2h72l20 20q23 24 17.5 42.5t-49.5 63.5q-36 36 -43.5 47.5t-7.5 29.5q0 43 48 137
q21 39 28.5 92.5t-5.5 66.5z" />
    <glyph glyph-name="C" unicode="C" horiz-adv-x="398" 
d="M259 676q19 4 65.5 1.5t54.5 -8.5q8 -7 8.5 -20.5t-7.5 -20.5t-53 -3q-32 3 -42 1t-29 -15q-27 -19 -74 -68q-29 -30 -44.5 -52t-32.5 -57q-21 -42 -25.5 -58.5t-5.5 -59.5l-3 -59l51 -52h72q52 0 66 2.5t43 18.5q39 20 61 20t23.5 -7t-16.5 -29q-30 -36 -102 -61
t-116 -16q-32 7 -51.5 17t-40.5 28q-34 31 -42.5 53.5t-8.5 83.5q0 47 2.5 65.5t12.5 43.5q21 47 44.5 82t65.5 79q75 78 124 91z" />
    <glyph glyph-name="D" unicode="D" horiz-adv-x="413" 
d="M121 689q16 4 54.5 0t57.5 -12q45 -18 94 -94t70 -160q6 -27 6 -41.5t-7 -52.5q-11 -59 -25 -86q-14 -30 -39 -58.5t-51 -43.5q-23 -14 -69.5 -25.5t-76.5 -11.5q-28 0 -69.5 9.5t-48.5 17.5q-7 9 -7 34q0 28 7 85.5t15 85.5q10 31 10 51q0 16 11 69.5t18 71.5q6 17 6 36
t9.5 63.5t15.5 51.5q7 7 19 10zM199 627q-32 12 -38 12q-7 0 -13 -10t-3 -18.5t-10 -74.5t-21 -89q-7 -17 -7 -36q0 -17 -15 -81q-13 -54 -24 -110q-8 -47 -0.5 -55.5t54.5 -6.5q30 2 47.5 6.5t48.5 18.5q43 20 63 39.5t33 53.5q21 55 24 85t-8 82q-14 66 -49.5 116.5
t-81.5 67.5z" />
    <glyph glyph-name="E" unicode="E" horiz-adv-x="478" 
d="M385 704q45 10 68 0q47 -22 -48 -49q-5 -2 -11 -3q-67 -18 -111 -48q-20 -15 -32.5 -16t-24.5 10q-14 13 -13.5 22t15.5 25q12 12 63.5 31.5t93.5 27.5zM132 655q11 8 24 8t20 -9q16 -19 -18 -90q-15 -32 -17 -45.5t6 -20.5q9 -9 47.5 -7t79.5 14q44 13 59.5 14.5
t18.5 -7.5q4 -10 -8.5 -25.5t-33.5 -25.5q-24 -12 -82 -24t-90 -12h-30l-20 -72q-14 -50 -16 -65t3 -34q9 -31 29 -40t80 -9q53 0 79 8.5t58 36.5q22 20 37 20q11 0 12.5 -3t-1.5 -16q-5 -26 -17.5 -42.5t-39.5 -33.5q-36 -23 -88 -35q-36 -9 -49 -9.5t-37 5.5
q-50 13 -76.5 34t-43.5 60q-10 25 -7.5 55.5t19.5 89.5q26 88 59.5 181t42.5 99z" />
    <glyph glyph-name="F" unicode="F" horiz-adv-x="362" 
d="M63 689q14 4 116 1q79 0 108 -5.5t29 -18.5t-20 -18.5t-81 -8.5q-107 -6 -107 -18q0 -5 8 -24t5 -50q-3 -30 5 -37q8 -6 107 -9q75 -1 97 -6t22 -19.5t-86.5 -33t-130.5 -13.5q-23 2 -29 0.5t-12 -14.5q-13 -26 -25 -150q-3 -38 -17 -46t-31 19q-15 22 -10 95t28 148
q15 53 15 71t13 44q9 19 9.5 23.5t-6.5 9.5q-11 5 -22.5 18t-11.5 20q0 14 27 22z" />
    <glyph glyph-name="G" unicode="G" horiz-adv-x="483" 
d="M298 744q66 18 120 -22t55 -107q0 -33 -8.5 -45t-26.5 -2q-11 6 -17 19t-13 48q-3 15 -18 33q-11 13 -19 16t-32 3q-35 0 -63.5 -14.5t-61.5 -49.5q-58 -60 -104 -150q-44 -87 -38 -153t60 -95q26 -13 54.5 -3.5t45.5 38.5q8 12 10 27.5t1 63.5q0 45 1.5 61t8.5 26
q22 34 97 26q71 -6 85.5 -50.5t-20.5 -146.5q-12 -33 -20.5 -56t-16 -41t-13 -27t-11 -15.5t-10 -5.5t-9.5 3q-10 7 -16 31q-4 19 2.5 45t35.5 104q30 82 11 101q-8 8 -33 7t-32 -9q-8 -10 -1 -48q13 -77 -27.5 -135.5t-106.5 -59.5q-27 0 -66.5 17.5t-50.5 35.5
q-9 13 -21 46.5t-18 60.5q-5 22 2 54t31 92q20 53 56.5 106.5t77.5 93.5q39 36 64.5 53t54.5 24z" />
    <glyph glyph-name="H" unicode="H" horiz-adv-x="449" 
d="M124 672q10 13 24 14.5t23 -9.5q16 -19 -25 -129q-16 -42 -42.5 -147.5t-33.5 -155.5q-7 -46 0 -58q6 -13 2.5 -21.5t-14.5 -8.5q-25 0 -36.5 22t-11.5 71q0 29 25 137.5t40 144.5q3 8 21 67.5t28 72.5zM382 636q17 18 37 14.5t20 -25.5q0 -12 -27 -79t-27 -92t-9 -59
q-18 -64 -26 -172q-6 -77 -25 -78q-4 0 -10 4q-23 15 -16 109q1 18 2.5 49t1.5 38l2 23h-61q-39 0 -52.5 2.5t-24.5 10.5q-14 10 -18 23.5t4 24.5q5 5 19.5 6t58.5 -2q58 -3 73.5 1.5t15.5 24.5t25 92t37 85z" />
    <glyph glyph-name="I" unicode="I" horiz-adv-x="206" 
d="M147 703q9 7 22 7.5t20 -6.5q20 -20 -17 -125q-16 -47 -38.5 -113t-35.5 -104q-21 -64 -26 -101q-10 -68 -27 -68q-6 0 -22 15q-9 10 -11.5 19t-1.5 30q1 30 24.5 114.5t52.5 157.5q15 42 32 101q17 66 28 73z" />
    <glyph glyph-name="J" unicode="J" horiz-adv-x="453" 
d="M306 761q4 4 42.5 3t57.5 -6q26 -5 32.5 -18t3.5 -50q-5 -47 -42.5 -189t-61.5 -202q-3 -8 -8.5 -22.5t-13 -34.5t-12.5 -31q-32 -84 -53.5 -113t-64.5 -42q-25 -8 -64.5 -1t-59.5 24q-23 20 -37.5 43t-14.5 41q0 30 11 30q10 0 38 -32q30 -34 54 -44t55 -2q26 8 32 15
q8 9 62 143q41 100 76 226t35 175v25h-34q-30 0 -69.5 -6.5t-57.5 -8.5q-32 -3 -41 -1.5t-18 10.5q-12 14 -11 24q2 12 30.5 22t73.5 14q57 5 60 8z" />
    <glyph glyph-name="K" unicode="K" horiz-adv-x="452" 
d="M377 658q19 13 36 16t26 -6q9 -8 -7.5 -32t-65.5 -74q-64 -65 -95 -107q-29 -40 -31.5 -62t17.5 -69q8 -22 19.5 -51.5t21 -53t22.5 -48.5q13 -27 15.5 -36.5t-2.5 -15.5q-16 -20 -48.5 4t-50.5 70q-27 69 -40.5 94t-23.5 25q-7 0 -45 -39q-39 -38 -51 -72
q-16 -47 -31.5 -43.5t-27.5 57.5q-8 44 -3 62q7 26 30 142.5t26 141.5q4 40 25.5 64t42.5 10q9 -6 8 -38.5t-11 -76.5q-8 -35 -14 -77q-4 -37 -9 -55q-5 -17 5 -17q10 1 26 22q10 13 93 115q34 42 79 88.5t64 61.5z" />
    <glyph glyph-name="L" unicode="L" horiz-adv-x="370" 
d="M135 632q7 8 26.5 7t26.5 -9t-18 -96q-49 -176 -75 -244q-14 -37 -14 -65q0 -18 3.5 -27t15.5 -21l19 -20h62q63 0 89 7q25 5 57.5 1.5t32.5 -11.5q0 -12 -98 -45q-42 -14 -105 -14q-44 0 -57 2.5t-30 13.5q-26 17 -44 42q-12 17 -14.5 26t-0.5 32q2 29 39 143
q46 143 69 232q10 39 16 46z" />
    <glyph glyph-name="M" unicode="M" horiz-adv-x="495" 
d="M146 654q10 8 16.5 8t16.5 -7q13 -10 18 -31.5t5 -66.5q0 -58 6 -79q11 -33 33 -43t49 4q17 10 50.5 46t47.5 60q14 25 33.5 42t33.5 17q25 0 29.5 -34.5t-11.5 -114.5q-18 -87 -23.5 -129.5t-9.5 -113.5q-3 -66 -9 -84t-24 -18q-19 0 -24.5 18t-6.5 83q-3 82 9.5 139.5
t12.5 66.5q0 5 -7 7t-16 -0.5t-13 -8.5q-7 -9 -38 -26q-58 -34 -120 -3q-29 15 -38 15t-26 -64q-20 -73 -45.5 -146t-33.5 -82q-9 -10 -22.5 -11t-21.5 9q-9 10 -7 34.5t14 48.5q16 31 37.5 99.5t27.5 103.5q1 11 12 67t11 81q0 26 12 66t22 47z" />
    <glyph glyph-name="N" unicode="N" horiz-adv-x="619" 
d="M173 677q3 19 14 32.5t27 13.5q20 0 25 -16t4 -70q-6 -194 1.5 -282t34.5 -135q9 -16 15.5 -20.5t24.5 -5.5q17 -1 27 3t28 17q27 19 64.5 70t59.5 96q18 36 26 67.5t15 86.5q5 40 12 49q8 9 22.5 8t25.5 -12q8 -10 9.5 -17.5t-0.5 -27.5q-11 -92 -58 -190t-107 -155
q-34 -32 -61 -45t-62 -13q-23 0 -34 3t-28 15q-23 16 -42.5 51.5t-27.5 73.5q-6 31 -11 42t-14 13q-9 1 -13 -18q-7 -38 -60 -144q-14 -28 -22.5 -39.5t-18.5 -14.5q-15 -6 -26 0t-13 21q-2 14 37 95q38 79 49 110q28 86 42.5 149t34.5 189z" />
    <glyph glyph-name="O" unicode="O" horiz-adv-x="393" 
d="M186 608q16 12 26 15.5t30 3.5t31.5 -4t31.5 -18q29 -20 42.5 -42t24.5 -66q24 -102 -2.5 -218t-87.5 -171q-47 -43 -100 -50t-93 24q-33 25 -48 50.5t-24 70.5q-7 37 -7 52.5t7 48.5q20 100 63 172q59 96 106 132zM250 549q-18 28 -69 -33q-21 -25 -42 -61
q-31 -50 -42.5 -93.5t-11.5 -107.5q0 -54 5 -72t27 -42q12 -12 20.5 -15.5t26.5 -3.5q30 0 54 17.5t52 60.5q30 47 38.5 82.5t7.5 111.5l-2 82l-24 12q-23 13 -29 33q-5 18 -11 29z" />
    <glyph glyph-name="P" unicode="P" horiz-adv-x="398" 
d="M217 747q21 5 54 1t50 -15q44 -27 60 -90.5t-5 -128.5q-18 -56 -59.5 -88.5t-96.5 -32.5q-40 -1 -51 10q-10 10 -4.5 20t24.5 15q20 5 34 7q15 4 48 34t43 48q7 15 7.5 52t-6.5 61q-7 22 -26 41q-14 14 -20 15.5t-23 -3.5q-37 -12 -61.5 -52t-44.5 -123
q-47 -199 -53 -239q-3 -21 -16 -60q-16 -51 -40 -60q-16 -6 -20 19q-1 7 -1 15q0 18 28.5 163.5t39.5 181.5q6 23 6 44q0 47 52 105q45 51 81 60z" />
    <glyph glyph-name="Q" unicode="Q" horiz-adv-x="425" 
d="M227 655q34 12 65 -9q13 -10 34 -18q27 -11 52 -62t34 -115q6 -42 0 -102t-19 -84q-10 -22 -35 -51q-23 -26 -26.5 -41t4.5 -50q7 -30 3.5 -39.5t-21.5 -9.5q-13 0 -29 21q-16 20 -21 20q-4 0 -35 -18q-31 -19 -64 -27q-22 -5 -34 -5t-32 6q-29 8 -53.5 31t-32.5 50
q-9 30 -7 85t14 93q22 71 55.5 144.5t68.5 124.5q11 15 34 31.5t45 24.5zM279 538q-29 7 -37.5 4.5t-21.5 -22.5q-17 -24 -43 -31q-18 -4 -24.5 -10.5t-17.5 -29.5q-19 -37 -36 -89t-25 -95q-9 -55 0.5 -87.5t41.5 -48.5q11 -6 18.5 -5.5t28.5 7.5q26 8 51 29t25 35
q0 11 -21 50q-24 43 -20 65t36 19q13 -2 19 -8t17 -28q16 -35 24 -35q9 0 24.5 18t20.5 35q7 20 7 86t-7 88q-6 22 -20 34t-40 19z" />
    <glyph glyph-name="R" unicode="R" horiz-adv-x="409" 
d="M229 737q19 4 51 -1.5t48 -15.5q27 -18 38.5 -41.5t11.5 -63.5q0 -44 -11 -75q-10 -29 -39 -74.5t-42 -52.5q-9 -5 -36 -28q-15 -13 -19.5 -21.5t-4.5 -24.5t5.5 -25t26.5 -30q22 -21 56.5 -45.5t63.5 -39.5q11 -6 15 -12.5t5 -19.5q1 -17 -1 -19.5t-14 0.5q-25 6 -86 39
t-82 51q-37 34 -53 75.5t-2 68.5q6 12 52 43q32 22 52 45t39 60q13 25 13 71t-11.5 60t-49.5 14q-32 0 -50.5 -9t-32.5 -31q-14 -21 -32 -82.5t-26 -112.5q-22 -147 -31 -169q-6 -15 -12 -45q-5 -26 -12 -35.5t-20 -9.5q-43 0 -23 83q34 145 35 283v71l19 11q20 9 63 51
q29 28 47 38.5t49 18.5z" />
    <glyph glyph-name="S" unicode="S" horiz-adv-x="331" 
d="M170 735q38 10 78 -6.5t60 -50.5q10 -18 12.5 -34t-3 -23t-14 -9t-21 7t-24.5 26q-12 19 -28.5 30.5t-30.5 11.5q-12 0 -38 -15t-44 -32q-26 -24 -33 -42.5t-7 -62.5q0 -37 4.5 -52t26.5 -59q31 -63 65 -112q34 -52 43.5 -72t9.5 -43q0 -29 -13 -36t-70 -7
q-39 0 -55.5 2.5t-30.5 10.5q-44 23 -47 53q-1 19 10 23t29 -10q20 -14 53.5 -22t43.5 0q9 8 9 12q0 5 -31 54q-7 11 -25.5 41t-24.5 40q-17 26 -39 80q-14 33 -17 50.5t-3 55.5t3 52.5t15 35.5q18 33 37 50q17 14 48 31t52 22z" />
    <glyph glyph-name="T" unicode="T" horiz-adv-x="477" 
d="M44 699q59 17 330 -25q34 -5 62.5 -18t30.5 -24q1 -5 -6 -6q-13 -3 -113 0q-120 3 -128 -5q-8 -10 -24 -68q-4 -12 -11.5 -35.5t-13.5 -41t-14 -44.5t-12.5 -46t-9.5 -44.5t-5 -41t1 -35.5q4 -22 -4 -30.5t-25 0.5q-26 13 -27 76.5t22 153.5q2 10 7 27q25 97 28.5 114
t-1.5 23q-1 1 -2 1q-5 7 -14.5 8t-36.5 -2q-30 -3 -38 -1.5t-18 11.5q-12 13 -12 19q0 9 10.5 19.5t23.5 14.5z" />
    <glyph glyph-name="U" unicode="U" horiz-adv-x="416" 
d="M68 557q9 10 22.5 10.5t20.5 -8.5t4 -26t-21 -84q-13 -47 -16 -72t-3 -92q0 -187 50 -187q12 0 60.5 47.5t59.5 71.5q13 24 30 53q20 33 33 81q13 45 21 63q7 14 23 20t26 -1t9 -38.5t-12 -58.5q-17 -46 -11.5 -126t31.5 -137q13 -28 11 -37.5t-19 -9.5q-18 0 -37.5 23.5
t-29.5 57.5q-12 40 -12 48q0 19 -37 -15q-12 -11 -29 -28q-53 -55 -86 -67.5t-72 5t-56.5 68.5t-17.5 149q0 83 8 128q10 50 25.5 101.5t24.5 60.5z" />
    <glyph glyph-name="V" unicode="V" horiz-adv-x="407" 
d="M343 600q24 21 33.5 25t17.5 -4q10 -10 -16.5 -54t-116.5 -172q-26 -38 -45 -74q-60 -117 -106 -160q-19 -19 -28 -23.5t-23 -2.5q-22 1 -34 18q-9 12 -11 42.5t-4 174.5q-1 163 3.5 196.5t25.5 35.5q14 2 27 -7q8 -6 9.5 -31t-0.5 -151q-2 -163 4 -170q2 -2 5 -1
q10 2 68 98q52 85 105 158t86 102z" />
    <glyph glyph-name="W" unicode="W" horiz-adv-x="575" 
d="M33 571q10 8 17 7.5t18 -10.5q12 -11 15.5 -32.5t-1.5 -46.5q-7 -25 -7 -125q0 -65 2 -83.5t8 -20.5q15 -6 50.5 40.5t79.5 130.5q22 40 32.5 55.5t20.5 18.5q17 6 27 -1q6 -4 7.5 -23.5t-0.5 -96.5q-1 -77 0.5 -97.5t8.5 -28.5q10 -12 18 -12q20 0 102 164
q48 97 71.5 133.5t39.5 36.5q30 0 22 -31q-13 -45 -69.5 -161t-86.5 -161q-22 -33 -42 -44q-45 -23 -82 4.5t-45 91.5q-5 27 -11 27q-7 -1 -24 -27q-62 -98 -124 -98q-17 0 -25.5 3t-17.5 12q-18 19 -22.5 53.5t-4.5 143.5q0 105 4 136t19 42z" />
    <glyph glyph-name="X" unicode="X" horiz-adv-x="444" 
d="M395 588q36 22 38 8q1 -2 1 -6q0 -21 -28.5 -57.5t-127.5 -139.5q-70 -73 -74 -89q-4 -17 5 -39q22 -50 22 -94q0 -18 -2 -22t-12 -4q-24 0 -47 53q-29 63 -78 -34q-16 -32 -27 -42.5t-25.5 -11.5t-22.5 8q-9 12 -6.5 37.5t16.5 45.5q43 68 81 109q1 0 2 1
q13 15 10.5 32.5t-32.5 108.5q-2 7 -3 11q-18 55 -21.5 71.5t1.5 25.5q7 12 22 17t25 -1q23 -15 40 -92q4 -22 7 -34t8 -23t8.5 -15t11.5 -3.5t15.5 5t21.5 16t27.5 24.5t35.5 35q85 84 108 99z" />
    <glyph glyph-name="Y" unicode="Y" horiz-adv-x="397" 
d="M19 656q6 7 14 7q11 0 28 -20.5t25 -44.5q20 -62 48.5 -96.5t58.5 -34.5q43 0 84 50q35 42 47.5 52.5t27.5 10.5q20 0 28 -7q12 -14 2.5 -32.5t-53.5 -64.5q-98 -102 -160 -197q-37 -56 -53 -116q-9 -30 -29 -30q-22 0 -26 30.5t12 71.5q10 23 41 72t48 69
q12 13 7.5 22.5t-27.5 19.5q-38 16 -73.5 65t-52.5 107q-13 44 3 66z" />
    <glyph glyph-name="Z" unicode="Z" horiz-adv-x="300" 
d="M49 665q16 4 64.5 0.5t70.5 -11.5q88 -31 43 -143q-14 -35 -9 -45t39 -14q22 -3 27.5 -6t5.5 -11q0 -23 -69 -31q-43 -6 -66.5 -29.5t-59.5 -96.5l-28 -55l14 -15q16 -16 50.5 -16t60.5 16q22 14 49 15q18 0 21.5 -2.5t2.5 -13.5q-2 -19 -33.5 -39t-72 -30.5t-67.5 -4.5
q-34 7 -58 34.5t-24 57.5q0 16 18 57t37 68q9 12 9 17t-7 18q-11 18 -3.5 32t32.5 21q21 6 35 16q21 18 39 72.5t7 66.5q-9 12 -38.5 17.5t-60.5 2.5q-33 -3 -44.5 1.5t-11.5 21.5q0 22 27 29z" />
    <glyph glyph-name="bracketleft" unicode="[" horiz-adv-x="348" 
d="M278 645q18 6 35.5 4t22.5 -11q7 -10 -9 -22.5t-58 -29.5q-63 -25 -75 -34.5t-18 -37.5q-15 -65 -78 -306q-12 -45 -13 -64.5t6 -26.5q8 -8 54.5 -7.5t69.5 8.5q26 9 40 9q10 0 11.5 -2.5t-0.5 -13.5q-19 -75 -137 -76q-55 0 -78 11.5t-34 43.5q-7 22 -7 33.5t9 49.5
q13 58 28.5 114.5t27.5 110.5q20 94 27 125q13 59 18 72q7 17 26 25.5t61 12.5q51 6 71 12z" />
    <glyph glyph-name="backslash" unicode="\" horiz-adv-x="235" 
d="M17 620q8 8 27 7t27 -10q9 -9 27 -58.5t22 -55.5q10 -21 39.5 -106t37.5 -115q2 -9 8 -32.5t9 -32.5q9 -31 10.5 -63t-4.5 -39q-20 -20 -47 41q-14 32 -33 90q-27 80 -60.5 168t-52.5 125q-14 27 -16.5 49.5t6.5 31.5z" />
    <glyph glyph-name="bracketright" unicode="]" horiz-adv-x="385" 
d="M155 629q35 7 114 -4.5t93 -25.5l13 -13l-12 -25q-35 -71 -92 -344q-7 -40 -19.5 -81t-17.5 -62q-8 -36 -23 -65t-30 -35q-19 -9 -54.5 1t-67.5 34q-33 25 -41 35t-8 27q0 31 18.5 32t46.5 -29q45 -48 71 -32q19 12 91 341q17 82 27 113q16 50 10 61t-49 11q-37 0 -61 6
q-29 8 -32.5 29t23.5 26z" />
    <glyph glyph-name="a" unicode="a" horiz-adv-x="355" 
d="M155 479q44 33 90 6q25 -16 33.5 -49.5t-2.5 -60.5t-37 -27q-16 0 -19.5 7.5t-8.5 56.5q-3 15 -12 21q-7 4 -16 -1.5t-31 -27.5q-42 -41 -59.5 -83.5t-17.5 -103.5q0 -84 43 -84q16 1 28.5 7t46.5 31q53 39 72 93q14 42 39 42q17 0 21.5 -11.5t1.5 -50.5q-4 -48 7 -84
q9 -35 11 -48q2 -23 -27 -5q-10 7 -22 18q-32 29 -39 23q-2 -2 -9 -7t-19 -13t-22 -15q-30 -21 -42 -25t-41 -5q-36 0 -53 8.5t-38 36.5q-22 30 -23 77.5t16 96.5t51 97t78 80z" />
    <glyph glyph-name="b" unicode="b" horiz-adv-x="318" 
d="M110 736q10 10 18 9.5t20 -13.5l14 -15l-15 -41q-16 -41 -37 -115.5t-21 -86.5t9 -12.5t31 10.5q89 45 147 -6q21 -18 27.5 -45t3.5 -82q-2 -55 -13 -86t-36 -60q-34 -38 -78.5 -46t-92.5 15q-30 15 -42 37.5t-13 65.5q0 63 17 61q5 0 11 -6q8 -7 11 -14.5t12 -39.5
q7 -25 21 -43q11 -12 19 -15t28 -3q23 0 31 4t27 24q22 24 27 35.5t14 53.5q7 36 0 68q-8 32 -15 39.5t-30 7.5q-25 0 -63 -25q-32 -23 -61 -39q-44 -24 -62 -5.5t-2 71.5q10 31 30 108q17 69 35.5 123.5t27.5 65.5z" />
    <glyph glyph-name="c" unicode="c" horiz-adv-x="495" 
d="M180 511q36 13 75 6.5t54 -27.5q8 -12 9 -34t-7 -30q-10 -10 -23.5 -6t-26.5 20q-14 19 -31 20.5t-47 -14.5q-62 -31 -93 -98.5t-4 -111.5q12 -18 31.5 -30.5t37.5 -12.5q21 0 66 10.5t78 22.5q114 44 160 44q15 0 21.5 -3t3.5 -8.5t-15 -10.5q-19 -8 -37 -19
q-65 -38 -140 -62t-128 -24q-35 -1 -48 2t-36 16q-63 36 -69 101q-5 57 23.5 114t81.5 96q39 30 64 39z" />
    <glyph glyph-name="d" unicode="d" horiz-adv-x="454" 
d="M392 636q14 14 22 14t20.5 -13t8.5 -28t-38 -83q-46 -92 -62.5 -172t-0.5 -133q7 -24 2 -33t-23 -4q-16 5 -24.5 14t-19.5 35q-13 31 -21 31q-6 0 -36 -26q-86 -78 -160 -48q-29 12 -39.5 35t-10.5 72q0 66 24 113t74 81q48 33 84 33.5t69 -29.5q15 -15 22.5 -18.5
t13.5 -0.5q7 5 11.5 12t18.5 35q41 89 65 113zM213 454q-19 19 -24 19q-12 -1 -41 -20t-39 -33q-37 -56 -37 -125q0 -40 7 -47.5t24.5 -7t32.5 8.5q17 8 59 52t46 57q5 17 -4 48t-24 48z" />
    <glyph glyph-name="e" unicode="e" horiz-adv-x="363" 
d="M202 533q16 4 46 1.5t42 -8.5q11 -6 17.5 -33t2.5 -55q-3 -30 -24.5 -72t-40.5 -57q-25 -19 -65.5 -36t-62.5 -17q-27 -1 -34.5 -6.5t-7.5 -24.5q0 -13 3.5 -19t15.5 -14q24 -14 64.5 -10t88.5 26q79 35 102 24q13 -6 -11 -28q-36 -33 -97.5 -58t-106.5 -25
q-43 1 -79.5 30.5t-42.5 68.5q-5 32 2.5 61.5t35.5 83.5q33 68 74.5 113t77.5 55zM240 477q-7 8 -13 8q-27 -1 -78 -61.5t-51 -91.5q0 -14 3 -17t15 -3q20 0 37 10t41 36q34 34 47.5 69.5t-1.5 49.5z" />
    <glyph glyph-name="f" unicode="f" horiz-adv-x="443" 
d="M363 720q19 13 36 14t25 -10q9 -10 9 -52.5t-10 -56.5q-10 -15 -16 -33q-8 -26 -44 -75.5t-74 -88.5q-39 -38 -53 -61.5t-40 -91.5l-13 -32l14 -11q13 -11 22 -11q8 0 8 -15q0 -8 -5.5 -13.5t-22.5 -12.5q-28 -12 -38 -23q-8 -9 -24 -58t-20 -77q-4 -26 -10 -52l-6 -29
h-25q-19 0 -23.5 3.5t-9.5 22.5q-6 27 -6 43q0 26 -22 129q-8 39 -4 48q4 11 25 22.5t43 14.5q19 3 36 14t17 21q0 6 19 45q11 24 14 36.5t0 30.5q-2 21 1.5 29t21.5 28q22 24 38 53.5t39 87.5q21 54 49.5 100.5t48.5 60.5zM84 130q8 5 1 13q-5 2 -6 -7q0 -4 1.5 -5.5
t3.5 -0.5z" />
    <glyph glyph-name="g" unicode="g" horiz-adv-x="372" 
d="M197 515q30 22 67.5 17t57.5 -34q8 -11 25 -54l15 -42l-23 -53q-22 -47 -50 -132q-28 -91 -47 -136t-41 -74q-21 -29 -40.5 -40.5t-46.5 -11.5q-39 0 -71.5 32t-32.5 71q0 27 16 31.5t27 -19.5q7 -18 25 -36q33 -37 66 -6.5t75 135.5q24 61 22 79l-2 19l-43 1
q-42 1 -63 14q-19 12 -30 37.5t-8 48.5q6 40 34.5 82.5t67.5 70.5zM258 465q-18 23 -59 -22q-24 -25 -29.5 -40.5t-3.5 -48.5q2 -38 21.5 -42t53.5 27q27 24 32 62.5t-15 63.5z" />
    <glyph glyph-name="h" unicode="h" horiz-adv-x="335" 
d="M104 690q5 7 17.5 8.5t20.5 -4.5q13 -9 15.5 -20.5t-2.5 -36.5t-23 -88q-11 -37 -11 -51q0 -12 -10 -46q-26 -100 -26 -144q0 -19 8 -19q10 0 77 54q25 21 59.5 39.5t46.5 18.5q58 0 47 -128q-14 -157 -29 -172q-6 -7 -17 0q-25 16 -20 129q1 49 0 63t-7 16
q-10 4 -42 -17.5t-76 -60.5q-23 -22 -49 -36t-41 -14q-28 0 -31.5 32.5t13.5 116.5q9 38 17 78.5t14 70t16 71.5q16 65 20 97q6 36 13 43z" />
    <glyph glyph-name="i" unicode="i" horiz-adv-x="195" 
d="M73 606q18 4 57 0.5t46 -8.5q9 -8 9 -21q0 -9 -8 -12.5t-40 -8.5q-41 -6 -58 -3.5t-25 17.5q-7 13 -2 22.5t21 13.5zM88 451q13 14 31 8.5t18 -24.5q0 -11 -15.5 -50.5t-33.5 -75.5q-15 -29 -18 -65q-4 -35 -19 -51q-16 -15 -25 -8q-26 15 -10 79q8 35 35 105t37 82z" />
    <glyph glyph-name="j" unicode="j" horiz-adv-x="403" 
d="M203 626q12 12 25.5 12.5t76.5 -11.5q68 -12 79 -23q24 -24 -15 -33q-42 -9 -116 6q-48 10 -58 20t8 29zM172 432q54 53 63 53q8 0 21 -15l14 -15l-19 -73q-25 -98 -45 -192q-18 -82 -54 -144q-21 -36 -59.5 -35.5t-64.5 38.5q-13 19 -15.5 32t-2.5 64t2 63t12 23
q21 23 29 -4q5 -17 8 -56q6 -91 26 -91q8 -1 21 15q15 20 40.5 104.5t25.5 116.5q0 7 -2 10t-6.5 3t-12 -3.5t-18.5 -10.5q-21 -13 -46 -15t-34 9q-18 21 34 53q27 17 83 70z" />
    <glyph glyph-name="k" unicode="k" horiz-adv-x="385" 
d="M147 667q18 14 31 -1q9 -11 1 -43t-41 -130q-38 -109 -47.5 -147.5t-1.5 -48.5q8 -9 15 -9t71.5 42t89.5 63q7 6 27 22.5t25 21.5q28 24 43 24q10 0 12.5 -3.5t2.5 -18.5q0 -17 -16 -35.5t-76 -69.5q-31 -27 -33.5 -46t20.5 -53q21 -31 21 -36q0 -6 -26 -6
q-19 0 -28.5 4.5t-27.5 22.5q-28 26 -39 26q-10 0 -41 -15q-25 -13 -53 -15.5t-45 5.5q-14 8 -19 30q-4 14 1 36t28 93q32 97 48 152q13 45 31 86.5t27 48.5z" />
    <glyph glyph-name="l" unicode="l" horiz-adv-x="297" 
d="M168 638q14 11 21.5 12.5t14.5 -6.5q20 -19 -17 -73q-31 -47 -51 -93.5t-41 -120.5q-18 -62 -19.5 -81.5t10.5 -39.5q8 -13 14.5 -16t27.5 -3q30 0 71 21q61 30 82 18q17 -9 -14 -36q-38 -33 -87.5 -52t-81.5 -11q-36 8 -59.5 35.5t-27.5 67.5q-2 20 3 42.5t24 80.5
q31 94 48 122q1 3 41 75q26 45 41 58z" />
    <glyph glyph-name="m" unicode="m" horiz-adv-x="523" 
d="M80 493q10 13 24 15t22 -8t7 -45t-4.5 -59.5t3.5 -30.5q6 0 37 37q56 64 73.5 79t34.5 15q21 0 28 -9q7 -8 8.5 -38t-3.5 -55q-4 -16 -2.5 -19.5t11.5 -3.5q13 0 35 22q38 40 83 52.5t64 -12.5q13 -15 12 -41t-17 -104q-18 -84 -18 -90q0 -5 -7.5 -5.5t-16.5 2.5t-12 7
q-7 9 -8 49.5t5 79.5t-6 39t-53 -38q-65 -61 -93 -82t-43 -21q-25 0 -31 15t0 67q5 38 -3 37q-6 0 -14 -16t-43 -49.5t-59 -50.5q-20 -13 -45.5 -15.5t-34.5 9.5q-8 9 5 46q12 35 27 92.5t18 85.5q4 27 16 43z" />
    <glyph glyph-name="n" unicode="n" horiz-adv-x="391" 
d="M56 511q8 9 22.5 8.5t24.5 -10.5q26 -26 7 -122q-5 -25 -8 -41.5t-3.5 -26.5t0.5 -14.5t5 -4.5q22 0 62 42q21 21 63 53.5t63 43.5q19 9 45.5 9.5t34.5 -8.5q14 -18 6 -111t-27 -122q-20 -30 -34 -1q-18 36 -5 103q5 26 5 34.5t-7 14.5q-12 12 -37.5 -5t-111.5 -95
q-44 -40 -66 -53t-46 -11q-16 1 -22.5 4.5t-11.5 14.5q-8 17 -1 48q16 69 21.5 98.5t8.5 75.5q3 66 12 76z" />
    <glyph glyph-name="o" unicode="o" horiz-adv-x="330" 
d="M42 385q33 61 73 74t116 -15q38 -15 56.5 -32.5t27.5 -47.5q8 -29 2 -51.5t-33 -63.5q-32 -48 -81.5 -82t-86.5 -34q-18 1 -42.5 13t-36.5 28q-28 33 -26.5 93t31.5 118zM183 382q-27 31 -34 31q-10 0 -29 -23t-31 -48q-16 -33 -19 -54.5t4 -42.5q13 -49 46 -52t73 40
q47 52 55 74.5t-19 34.5q-20 10 -46 40z" />
    <glyph glyph-name="p" unicode="p" horiz-adv-x="384" 
d="M236 527q37 22 70.5 14.5t52.5 -39.5q11 -19 14.5 -75t-4.5 -92q-7 -35 -25.5 -71t-37.5 -53q-19 -16 -43 -23.5t-40 -1.5q-26 11 -35.5 32.5t6.5 34.5q5 5 10.5 4.5t18.5 -7.5q22 -12 33 -6t27 38q44 88 30 155q-7 32 -13 40t-23 8q-19 0 -44 -25q-25 -29 -34 -47
q-13 -25 -32 -84t-19 -73q0 -17 -12.5 -74t-27.5 -108q-35 -119 -75 -119q-14 0 -19 6t-3 27.5t10.5 55.5t28.5 99q22 77 28 100t14 68q12 70 21 92t32 38q28 20 45 45q18 25 46 41z" />
    <glyph glyph-name="q" unicode="q" horiz-adv-x="311" 
d="M117 488q42 29 80 18t48 -54q10 -46 -12 -64q-19 -16 -39 12q-3 4 -5 10q-16 29 -26.5 30t-36.5 -24q-29 -29 -41.5 -60.5t-12.5 -78.5q0 -46 7.5 -53t31.5 -7q17 0 26.5 6t33.5 31q35 35 56 67q18 26 28 35t23 9q20 0 23 -12.5t-8 -47.5q-12 -39 -30 -76
q-46 -91 -105 -291q-2 -8 -18 -6q-23 3 -21.5 40t28.5 130q15 50 15 56q0 5 -42 2q-28 -3 -38.5 -1.5t-26.5 12.5q-30 20 -37.5 38.5t-7.5 69.5q0 40 3 55t14 37q45 87 90 117z" />
    <glyph glyph-name="r" unicode="r" horiz-adv-x="370" 
d="M98 507q34 25 41 25q13 1 34 -40q12 -23 33.5 -30.5t70.5 -6.5q55 2 71 -3q23 -7 4 -24q-6 -6 -18 -12q-22 -11 -74.5 -12t-81.5 8q-18 6 -23.5 6t-12.5 -8q-12 -12 -42 -105q-22 -67 -38 -95.5t-31 -28.5q-8 0 -14.5 8.5t-6.5 20.5q0 20 17 109.5t31 141.5q5 21 40 46z
" />
    <glyph glyph-name="s" unicode="s" horiz-adv-x="312" 
d="M125 533q20 4 59 2q39 -3 62 -20q45 -31 55 -75q3 -38 -26 -42q-16 0 -29 20q-13 22 -32 43q-13 15 -20.5 19.5t-23.5 4.5q-37 0 -57.5 -23t-17.5 -61q5 -41 65 -146q22 -39 23.5 -62.5t-16.5 -41.5q-32 -31 -99 -18q-37 8 -48 20.5t-10 44.5q1 11 13.5 12.5t26.5 -8.5
q11 -9 37 -9q16 0 20.5 2t4.5 10q0 10 -11.5 34.5t-25.5 43.5q-13 19 -26.5 63t-13.5 67q0 38 27 74t63 46z" />
    <glyph glyph-name="t" unicode="t" horiz-adv-x="298" 
d="M152 673q13 14 28 13q21 -3 22.5 -20t-15.5 -79q-25 -97 -21.5 -115.5t47.5 -16.5q72 4 75 -16q1 -6 -8 -13q-3 -2 -32.5 -8.5t-61 -12.5t-34.5 -7q-8 -3 -15 -25.5t-19 -86.5q-16 -85 -20.5 -102.5t-12.5 -22.5q-22 -13 -31 26q-7 32 1 80q6 44 10 73l4 31l-23 9
q-22 9 -31.5 23.5t0.5 25.5q9 8 33 12q20 3 35 15t15 25q0 11 11 54q12 44 21 82q12 42 22 56z" />
    <glyph glyph-name="u" unicode="u" horiz-adv-x="390" 
d="M86 470q10 12 23.5 14t22.5 -7q21 -21 -24 -110q-23 -46 -27.5 -62t-6.5 -59q-2 -64 12.5 -74.5t61.5 20.5q69 45 101 113q22 48 29.5 60.5t18.5 18.5q10 5 15 3.5t15 -11.5l15 -15l-12 -36q-20 -59 -14.5 -96t41.5 -79q23 -28 23 -38.5t-23 -12.5q-44 -4 -78 53
q-21 36 -32 37.5t-42 -27.5q-52 -48 -102 -52t-78 39q-25 39 -8 130q8 43 31.5 107.5t37.5 83.5z" />
    <glyph glyph-name="v" unicode="v" horiz-adv-x="363" 
d="M313 495q22 24 37 1q12 -20 -26 -68q-32 -41 -53 -71q-21 -31 -68 -79t-69 -64q-13 -8 -41 -9t-39 7q-12 9 -23 52.5t-11 81.5q0 42 -6 72q-7 29 1 46q5 11 11 14.5t21 3.5q26 0 32.5 -18t6.5 -86q0 -46 2 -62t8 -23q10 -11 17 -11q5 0 50.5 47.5t100.5 110.5
q11 12 28.5 32t20.5 23z" />
    <glyph glyph-name="w" unicode="w" horiz-adv-x="661" 
d="M77 477q6 8 25.5 7.5t25.5 -8.5q6 -6 1.5 -29.5t-29.5 -116.5q-9 -34 -13 -52t-5 -30t2.5 -15.5t10.5 -3.5q14 0 56.5 43.5t56.5 72.5q14 27 23.5 36t23.5 7q16 -2 22.5 -22.5t6.5 -72.5v-62l40 -39l53 2q54 2 90 18.5t75 57.5q30 31 37 45.5t10 52.5q4 29 13 38
q10 11 24.5 1.5t21.5 -31.5q12 -47 -21.5 -101.5t-93.5 -85.5q-28 -13 -49 -28q-16 -11 -70 -22q-35 -8 -49 -8t-37 6q-35 9 -55 22t-39 40q-18 24 -27 27.5t-22 -10.5q-17 -20 -47 -33.5t-55 -13.5q-22 0 -30.5 3.5t-22.5 16.5q-20 21 -20 37q0 19 29.5 130.5t37.5 120.5z
" />
    <glyph glyph-name="x" unicode="x" horiz-adv-x="385" 
d="M111 512q12 8 20 6q10 -1 20.5 -25t13.5 -51.5t11 -46t18 -18.5q8 0 43 18q27 13 70 27.5t57 14.5q4 0 7.5 -2.5t3.5 -6.5q0 -15 -85 -65q-38 -22 -64 -48l-25 -26l16 -47q31 -88 35 -103t-2 -21q-7 -8 -26.5 -8.5t-26.5 7.5q-5 6 -10 25q-4 17 -16 41.5t-21 34.5
q-9 11 -21 11q-14 0 -33 -22.5t-25 -45.5q-7 -26 -15.5 -33.5t-23.5 -0.5q-13 8 -19 26t-1 35q4 13 30.5 48.5t49.5 56.5q13 14 17 22.5t3 25.5q0 28 -10 77q-9 41 -7 62t16 32z" />
    <glyph glyph-name="y" unicode="y" horiz-adv-x="409" 
d="M17 370q8 9 21.5 7t20.5 -13q8 -12 22 -56q13 -38 33 -68t42 -39l21 -11l65 67q62 64 80.5 75.5t57.5 9.5q24 -1 17 -21q-5 -14 -26 -44q-24 -36 -49.5 -60t-62.5 -47q-72 -43 -127 -148q-22 -43 -31 -55t-18 -12q-10 0 -12 4t-2 21.5t13 55.5t31 72q10 20 8.5 31
t-16.5 20q-19 11 -39.5 42t-34 64.5t-20 64t5.5 40.5z" />
    <glyph glyph-name="z" unicode="z" horiz-adv-x="273" 
d="M73 469q51 13 91 4q31 -7 37 -26.5t-10 -60.5q-11 -27 -9 -37.5t27 -15.5q25 -3 40 -10q32 -15 -2 -28q-22 -9 -64 -12l-48 -4l-16 -30q-13 -23 -15.5 -43.5t6.5 -29.5q7 -7 37.5 -6.5t44.5 8.5q9 5 23 7.5t25.5 1t11.5 -6.5q0 -11 -15.5 -26.5t-33.5 -23.5
q-29 -10 -62 -10q-65 -1 -89 47q-7 15 -6.5 25t11.5 44q15 49 18 71q4 22 28 41q41 32 41 65q0 8 -4.5 10t-22.5 2q-26 0 -57 -10q-28 -11 -39 -4q-26 16 4 38q18 12 48 20z" />
    <glyph glyph-name="braceleft" unicode="{" horiz-adv-x="336" 
d="M175 563q10 16 33.5 28.5t48.5 12.5q14 0 22.5 -4.5t23.5 -19.5q23 -25 23 -32q0 -15 -18 -19.5t-34 6.5q-11 9 -18 9q-15 0 -29.5 -47.5t-14.5 -100.5q0 -36 -9.5 -80t-22.5 -64q-13 -19 -26 -59q-15 -43 -32 -72q-2 -3 -6 -11q-41 -71 -43.5 -85t22.5 -26q2 -1 3 -2
q28 -14 31.5 -22.5t-12.5 -22.5q-20 -15 -26 -15q-12 0 -44 23t-35 34q-11 42 34 133q31 64 27 71q-5 7 -27 16t-30 24q-9 17 2.5 25.5t48.5 10.5q49 4 63 23.5t18 88.5q8 143 27 177z" />
    <glyph glyph-name="bar" unicode="|" horiz-adv-x="134" 
d="M69 656q8 8 22 6.5t24 -11.5q10 -11 9.5 -37.5t-12.5 -96.5q-8 -47 -26 -244q-6 -58 -11 -156q-4 -97 -13 -106q-7 -6 -11.5 -4.5t-16.5 16.5q-18 21 -22 52q-5 38 3 177t17 191q7 38 12 95q9 97 25 118z" />
    <glyph glyph-name="braceright" unicode="}" 
d="M177 593q18 4 44.5 -0.5t41.5 -13.5q38 -22 29 -94q-6 -52 -57 -117q-56 -70 -52 -82q4 -8 27 -15q24 -7 34 -19q11 -12 5 -22t-31 -24q-21 -12 -34.5 -35t-38.5 -88q-18 -47 -41 -75.5t-44 -28.5q-14 0 -33 17.5t-17 29.5q2 10 22 19q33 17 45.5 36.5t30.5 82.5
q11 37 11.5 46.5t-6.5 20.5q-14 21 -9.5 43.5t30.5 61.5q31 47 40 54q10 9 33 43q22 35 22 60q0 22 -6.5 29.5t-32.5 14.5q-20 6 -30 18t-5 23.5t22 14.5z" />
    <glyph glyph-name="asciitilde" unicode="~" horiz-adv-x="467" 
d="M103 354q16 5 40.5 1.5t37.5 -12.5q14 -8 26 -34q10 -22 30.5 -42t38.5 -24q38 -10 108 36q54 37 70 23q14 -11 -21 -51q-25 -29 -68 -50.5t-75 -21.5q-93 -1 -137 86q-13 24 -22 27q-17 7 -56 -49q-28 -42 -51 -35q-14 4 -14 28q0 26 33 68t60 50z" />
    <glyph glyph-name="cent" unicode="&#xa2;" horiz-adv-x="340" 
d="M257 607q17 14 30 1q17 -17 -6 -103l-13 -50l31 -32q44 -47 24 -68q-8 -8 -22 -7t-26 12q-16 12 -23 10t-17 -23q-15 -27 -40.5 -119t-25.5 -115q0 -14 7 -14t35 13q59 31 59 2q0 -22 -29 -47.5t-61 -31.5q-37 -7 -50 -49q-2 -9 -8 -18t-11.5 -12.5t-9.5 -0.5q-2 3 -7 39
q-2 23 -8 34t-25 32q-41 46 -50 116q-4 27 6 74t26 76t56.5 67t63.5 45q25 7 36.5 22.5t20.5 53.5q18 79 37 93zM175 361q0 5 -7.5 5t-17 -4t-15.5 -10q-38 -43 -53.5 -101t-0.5 -106q4 -14 8 -19t12 -5t12 8.5t12 38.5q11 50 30 117q20 70 20 76z" />
    <glyph glyph-name="sterling" unicode="&#xa3;" horiz-adv-x="389" 
d="M268 667q34 10 62.5 -0.5t39.5 -39.5q18 -44 -4 -65q-13 -12 -22.5 -9.5t-18.5 20.5q-34 68 -69 30q-25 -26 -40 -101q-9 -46 -9 -75v-32h62q97 0 103 -16q5 -13 -13 -23t-62 -17q-58 -10 -78 -20q-15 -7 -19 -15t-9 -37q-7 -42 -7.5 -58.5t5.5 -26t25 -21.5
q21 -14 60 -36q37 -21 22 -35q-16 -15 -68 0q-36 10 -57 12q-15 2 -20.5 -3t-20.5 -34q-31 -61 -72 -72q-15 -3 -30 12q-9 11 -12 22t-5 41q-3 59 3 88.5t24 47.5q15 14 22.5 16.5t32.5 0.5q35 -3 42 3q6 7 6 44t-7 42q-6 5 -28 13q-42 14 -42 39q0 26 42 31q23 4 35 20.5
t12 44.5q1 29 13 77t25 70q27 45 77 62zM84 80q13 15 18.5 30t0.5 26.5t-22 13.5q-10 1 -13.5 -3.5t-8.5 -25.5q-15 -63 3 -59q8 2 22 18z" />
    <glyph glyph-name="section" unicode="&#xa7;" horiz-adv-x="379" 
d="M241 676q31 7 67 -4.5t52 -33.5q9 -14 9 -33q0 -13 -3 -16t-18 -3q-21 0 -45 21q-16 16 -22.5 18t-19.5 -4q-41 -17 -41 -81q0 -24 4 -36t22 -37q44 -66 53.5 -85.5t9.5 -42.5q0 -63 -48 -94q-19 -11 -56 -22.5t-56 -11.5q-28 0 8 -33q8 -6 17 -14q35 -26 45 -43t10 -51
q0 -37 -12 -54q-31 -41 -93 -51.5t-95 18.5q-15 14 -18.5 31.5t8.5 25.5q10 6 30 -10q18 -13 32.5 -15t38.5 6q25 8 36 21.5t11 35.5q0 19 -5.5 26t-34.5 26q-42 28 -65 64q-17 27 -20 39t-3 46q0 122 92 169q20 11 26 16.5t5 14.5q-2 12 -3 62q-1 32 2 45t14 34
q14 25 29 37.5t37 18.5zM240 367q-8 14 -15.5 17t-34.5 4q-26 1 -34.5 -1t-16.5 -11q-12 -11 -22 -33.5t-10 -35.5q0 -31 57 -31q35 0 53.5 11t25.5 36q5 17 4.5 24.5t-7.5 19.5z" />
    <glyph glyph-name="guillemotleft" unicode="&#xab;" horiz-adv-x="382" 
d="M154 464q12 8 27 7t21 -11q7 -11 -30 -62.5t-57 -71.5q-23 -25 -20 -34q7 -18 79 -36q37 -9 54.5 -23t9.5 -27q-5 -6 -16.5 -8t-45.5 0q-56 1 -89 11t-55 31q-24 24 -22 40.5t31 48.5q31 33 66 79q33 45 47 56zM291 404q25 17 46 20t30 -9q16 -17 -29 -43
q-20 -11 -25.5 -18.5t0.5 -17t28 -28.5q22 -20 27 -28t1 -14q-7 -12 -29.5 -12.5t-40.5 10.5q-22 14 -42.5 38t-20.5 36q0 29 55 66z" />
    <glyph glyph-name="guillemotright" unicode="&#xbb;" horiz-adv-x="355" 
d="M194 501q10 10 32.5 7t40.5 -16q24 -18 48.5 -46t28.5 -43q7 -29 -41.5 -88.5t-94.5 -76.5q-45 -18 -45 13q0 10 50 60q27 28 38 41t12.5 28t-7 25t-31.5 30q-29 26 -36 40.5t5 25.5zM14 476q22 27 101 -24q4 -3 11 -7q50 -32 58.5 -40.5t7.5 -26.5v-4q0 -27 -14 -55
q-13 -25 -60 -71.5t-65 -51.5q-18 -4 -27 4.5t-5 24.5t20 31q21 20 26 20q6 0 30 34t24 43t-13.5 22t-48.5 36q-63 43 -45 65z" />
    <glyph glyph-name="questiondown" unicode="&#xbf;" horiz-adv-x="242" 
d="M146 526q13 6 19 5.5t12 -6.5q9 -8 6.5 -22.5t-14.5 -29.5l-15 -18l27 -17q34 -24 46 -46.5t-2 -36.5q-20 -20 -58 13q-20 19 -33 20.5t-26 -13.5q-10 -10 -11 -16t4 -21q8 -23 23 -41q33 -37 63.5 -84.5t34.5 -70.5q5 -20 -2 -46t-20 -39q-12 -12 -46.5 -21.5
t-52.5 -5.5q-36 8 -47 16t-25 36q-16 30 -18.5 57.5t8.5 39.5q6 5 9 4.5t11 -8.5q11 -12 26 -43q11 -23 17 -27.5t25 -5.5q17 -1 25 1.5t17 11.5l14 16l-14 27q-16 28 -36 52q-24 27 -48.5 65.5t-28.5 57.5q-10 36 8 73t50 46q24 6 33 6q4 0 6.5 1t2.5 4.5t-2 9t-7 13.5
q-7 12 -7.5 17t5.5 11q8 11 21 15z" />
    <glyph glyph-name="Agrave" unicode="&#xc0;" horiz-adv-x="426" 
d="M324 749q8 10 27.5 9t28.5 -10q13 -16 26.5 -49.5t8.5 -40.5q-8 -14 -25 -12t-33 19q-20 22 -30.5 48.5t-2.5 35.5zM316 580q14 10 28 11t22 -8q7 -9 0 -68q-2 -21 -6.5 -64t-9 -75.5t-11.5 -58.5q-10 -40 -5 -75q6 -45 0.5 -65t-24.5 -20q-27 0 -32 69q-4 44 -14 62
q-8 12 -14.5 15t-28.5 3q-23 0 -31.5 -4t-28.5 -26q-27 -29 -27 -34q0 -6 -30 -47t-38 -45q-20 -13 -44 8q-13 13 -11.5 23t21.5 31q21 23 58 71q121 158 177 237q34 48 49 60zM287 416q3 21 -5 20.5t-21 -21.5q-20 -30 -13 -49q3 -7 9 -5q9 1 17.5 17t12.5 38z" />
    <glyph glyph-name="Aacute" unicode="&#xc1;" horiz-adv-x="490" 
d="M393 780q12 12 21.5 15.5t31.5 3.5q34 1 34 -6q0 -6 -46 -53t-61 -47q-24 0 -29 19.5t15 35.5q17 15 34 32zM364 630q17 8 24.5 8.5t13.5 -6.5q10 -13 9.5 -43t-12.5 -96q-19 -104 -23 -140.5t-8 -125.5q-2 -69 -5 -92t-9 -29q-17 -18 -39 13q-19 30 -5 181q5 50 -3 58.5
t-50 -4.5q-39 -12 -54 -12q-11 0 -41 -38.5t-64 -94.5q-21 -34 -37 -49t-34 -15q-11 0 -14 3t-3 14q0 15 17 41.5t44 60.5t34 45q16 24 41.5 57t42.5 59q114 175 175 205zM337 495q1 25 -9 25q-7 0 -26 -25q-16 -25 -35 -43t-19 -32q0 -10 3.5 -11.5t17.5 0.5q37 6 52 25.5
t16 60.5z" />
    <glyph glyph-name="Acircumflex" unicode="&#xc2;" horiz-adv-x="478" 
d="M360 756q39 26 55 26q20 0 36.5 -26.5t16.5 -59.5q0 -19 -2.5 -23t-12.5 -4q-15 0 -32 15q-18 15 -29.5 14t-31.5 -20q-24 -21 -43 -21q-15 0 -24.5 6t-9.5 16t23.5 33.5t53.5 43.5zM330 605q54 49 69 -9q2 -11 -9 -83.5t-24 -129.5q-7 -34 -11 -102q-5 -75 -16 -98
q-10 -19 -16.5 -20.5t-18.5 14.5q-8 10 -10.5 25.5t-3.5 59.5q-2 63 -8 66q-2 1 -7 -1q-8 -2 -43 -7q-30 -3 -44 -16q-11 -10 -49.5 -66.5t-59.5 -93.5q-12 -21 -27.5 -30t-27.5 -2.5t-14 25.5q-1 17 19 49t139 201q6 8 8 11q37 52 52 77q17 28 50.5 71t51.5 59zM322 483
q4 15 -1 14q-12 -1 -40 -45q-13 -20 -19 -31.5t-6.5 -19.5t4.5 -11.5t16 -4.5q21 -3 28.5 6.5t10.5 41.5q3 38 7 50z" />
    <glyph glyph-name="Adieresis" unicode="&#xc4;" horiz-adv-x="531" 
d="M337 725q11 10 27 9.5t28.5 -10.5t7.5 -22q-3 -10 -31 -8q-23 1 -32.5 10t0.5 21zM494 690q4 9 14.5 7t12.5 -12q1 -9 -8 -13.5t-16 2t-3 16.5zM343 586q23 15 43 17t29 -10q8 -9 8.5 -74t-7.5 -121q-1 -8 -7 -73t-14 -104.5t-21 -47.5q-4 -3 -19 11q-8 9 -11.5 21
t-4.5 41l-3 47l-75 -1l-75 -2l-18 -24q-40 -55 -47 -65q-44 -61 -53 -70.5t-25 -9.5q-28 0 -32.5 19t19.5 45q20 24 34 44q10 15 68 92t68 91q76 103 100 132t43 42zM359 463q3 25 1.5 29t-13.5 4q-9 0 -18 -8.5t-29 -36.5q-9 -13 -25.5 -36.5t-19.5 -28.5
q-16 -23 -10 -31.5t35 -5.5q30 2 48 11q15 7 19 21t12 82z" />
    <glyph glyph-name="Ccedilla" unicode="&#xc7;" horiz-adv-x="546" 
d="M359 636q58 15 113 -10q36 -18 55.5 -62t-2.5 -58q-25 -15 -60 32q-20 27 -40.5 40.5t-35.5 10.5q-25 -7 -56.5 -24t-54.5 -37q-80 -70 -119.5 -114.5t-60.5 -89.5q-10 -21 -13.5 -38.5t-3.5 -52.5q-3 -54 1.5 -71.5t23.5 -39.5q22 -24 41.5 -30.5t58.5 -4.5t64.5 13
t51.5 38q25 25 36.5 30.5t18.5 -2.5q23 -27 -42 -86q-41 -36 -41 -44q0 -15 -11.5 -45t-22.5 -42q-9 -12 -17 -15t-27 -3q-24 0 -25.5 6.5t15.5 31.5q12 17 6 26.5t-31 14.5q-26 4 -41 14q-17 13 -47 32q-37 23 -54.5 48.5t-24.5 64.5q-11 64 11 137q17 53 77 126t133 131.5
t124 72.5z" />
    <glyph glyph-name="Egrave" unicode="&#xc8;" horiz-adv-x="356" 
d="M247 749q14 17 43.5 4.5t43.5 -41.5q16 -34 -9 -38q-28 -4 -60 28q-9 10 -16 22q-10 15 -2 25zM244 609q83 19 91 -4q2 -4 0 -9q-4 -10 -50.5 -32t-77.5 -28q-26 -5 -33.5 -10t-20.5 -27q-19 -30 -19 -50q0 -14 3 -16.5t19 0.5q19 3 60 22q32 15 55.5 17t27.5 -9
q4 -10 -20 -28.5t-67 -39.5q-33 -16 -47 -20t-34 -2q-27 3 -34 -5t-16 -52q-14 -62 19 -98q21 -22 67 -6.5t102 65.5q59 52 76 35q6 -6 -7.5 -33t-25.5 -33q-14 -8 -44 -35q-81 -74 -168 -60q-32 6 -43.5 14t-25.5 34q-24 43 -20.5 90t35.5 116q3 7 38 85q14 35 27 47.5
t36 12.5q15 0 19 15t20.5 24.5t57.5 19.5z" />
    <glyph glyph-name="Eacute" unicode="&#xc9;" horiz-adv-x="399" 
d="M352 782q16 4 26.5 1t10.5 -11q0 -11 -50.5 -59.5t-64.5 -51.5q-25 -6 -32 11.5t10 40.5q12 15 48 40t52 29zM203 595q7 1 35.5 8t55 12t38.5 3q15 -3 25 -3q6 0 7.5 -7.5t-2 -16.5t-10.5 -14q-16 -9 -79 -27q-52 -15 -71 -27t-39 -41q-12 -18 -24 -46.5t-12 -39.5
q1 -7 13.5 -6.5t34.5 6t42.5 12.5t39 11.5t23.5 3.5q21 -9 -15 -44q-19 -19 -62.5 -37.5t-75.5 -22.5q-30 -3 -36 -12t-6 -50q0 -40 6 -56t32 -43q15 -15 24 -20t23 -5q21 0 35.5 7t37.5 29q25 23 48 38q32 21 47 15q3 -2 3 -5q0 -8 -18.5 -35.5t-37.5 -46.5
q-31 -33 -51.5 -42.5t-61.5 -9.5q-31 0 -45 3t-34 14q-56 31 -76 110q-7 27 -7 39t7 39q24 100 99 224q26 43 44.5 61t42.5 22z" />
    <glyph glyph-name="Ecircumflex" unicode="&#xca;" horiz-adv-x="379" 
d="M153 761l34 38q49 0 97 1l3 -34q3 -34 -4.5 -43.5t-27.5 1.5q-19 11 -29.5 9t-30.5 -19q-18 -17 -38 -21t-31 7q-10 9 -5 20.5t32 40.5zM187 616q22 5 88 3q44 -1 59 -3t23 -9q12 -11 12 -19q0 -17 -60.5 -27t-105.5 0q-33 7 -39 1q-8 -6 -24.5 -59.5t-13.5 -62.5
q5 -13 54.5 -8t72.5 21q20 14 37.5 4.5t6.5 -28.5q-19 -37 -125 -55q-63 -11 -69 -17q-9 -8 -14.5 -41.5t-5.5 -75.5q0 -36 2.5 -48t11 -21t18.5 -11.5t42 -2.5q40 0 52 5t59 42q25 19 44 17q30 -3 11 -29q-9 -13 -30 -34q-38 -38 -69.5 -50.5t-86.5 -12.5q-45 0 -62.5 8.5
t-39.5 39.5q-17 25 -21.5 42.5t-1.5 44.5t17 100q26 124 34 145q13 37 22 74q12 44 23.5 55.5t36.5 9.5q27 -3 42 2z" />
    <glyph glyph-name="Edieresis" unicode="&#xcb;" horiz-adv-x="435" 
d="M212.5 763q6.5 7 10 7t24.5 -7q14 -3 19 -7.5t5 -12.5q0 -26 -33 -26q-19 0 -26 7q-6 7 -6 19.5t6.5 19.5zM318 737q8 9 21 9t21 -9q9 -10 2 -19.5t-23 -9.5t-23 9.5t2 19.5zM266 586l88 4q16 1 26 -4.5t10 -14.5q0 -23 -113 -42l-75 -12l-20 -38q-18 -38 -23 -62
q-2 -16 0 -19t15 -3q19 0 69 15q84 24 91 6t-32.5 -40.5t-111.5 -40.5q-52 -14 -68 -24.5t-25 -39.5q-8 -27 -9.5 -68t4.5 -49q15 -18 89.5 -4.5t148.5 46.5q45 20 70 24q18 3 21.5 1.5t3.5 -11.5q0 -13 -29.5 -34.5t-79.5 -44.5q-42 -19 -114.5 -35.5t-97.5 -12.5
q-38 7 -63 30.5t-31 57.5q-3 20 13.5 80.5t42.5 122.5q25 60 40 98q7 20 16 32.5t28.5 30.5t25.5 24l23 23z" />
    <glyph glyph-name="Icircumflex" unicode="&#xce;" horiz-adv-x="302" 
d="M209 777q34 22 58 -3q20 -19 24.5 -64.5t-11.5 -58.5q-8 -6 -30 21q-23 27 -30.5 27t-20.5 -19q-14 -21 -24 -28t-26 -7q-33 0 -33 29q0 11 34.5 50t58.5 53zM120 567q8 12 23 12.5t27 -12.5q22 -24 5 -55q-10 -19 -27 -75q-3 -10 -33 -101.5t-41 -135.5q-13 -50 -24 -64
l-12 -15l-15 14q-11 10 -12.5 17.5t1.5 37.5q4 40 21.5 111t34.5 113q17 44 30 91.5t22 61.5z" />
    <glyph glyph-name="Idieresis" unicode="&#xcf;" 
d="M146 702q26 8 33.5 8t14.5 -8q7 -9 -1 -25q-18 -34 -59 -31q-36 3 -34 21q2 21 46 35zM235 702q8 8 27.5 8.5t26.5 -8.5q7 -8 4.5 -21.5t-11.5 -19.5q-17 -11 -38.5 7t-8.5 34zM111 533q13 13 29 11t29 -19q8 -9 0.5 -36.5t-39.5 -107.5q-33 -83 -45 -134
q-28 -119 -46 -125q-7 -3 -15 7q-31 30 5 166q20 80 36 110q14 30 25 73q10 44 21 55z" />
    <glyph glyph-name="Ntilde" unicode="&#xd1;" horiz-adv-x="613" 
d="M377 775q18 13 23 13q6 0 19.5 -7.5t23.5 -15.5q11 -10 46 -16.5t59 -3.5q24 2 34 -5.5t5 -25.5q-3 -16 7 -31q23 -35 -6 -109q-15 -39 -30 -97q-18 -68 -69 -160t-82 -113q-15 -11 -40 -11q-24 0 -55.5 18t-46.5 40q-12 18 -28 75t-16 80q0 17 -9.5 22.5t-18.5 -6.5
q-9 -13 -26 -68q-13 -36 -31 -79t-28 -72q-10 -30 -29.5 -56t-32.5 -26q-8 0 -22 15l-14 15l14 32q22 50 34.5 80.5t17.5 44.5t16 47.5t25 69.5q37 101 61 182q16 53 28.5 67.5t36.5 10.5q15 -3 21.5 -0.5t16.5 11.5q19 22 96 79zM453 684q-37 14 -54 13.5t-32 -15.5
q-16 -17 -37 -27.5t-32 -7.5t-15.5 -1.5t-6 -21t1 -43.5t8.5 -76q14 -114 21.5 -150t20.5 -62q15 -26 31 -28q11 -1 19.5 7.5t31.5 43.5q30 46 53 101t52 152q15 48 27 70q25 49 2 47q-1 0 -3 -1q-54 -14 -88 -1z" />
    <glyph glyph-name="Oacute" unicode="&#xd3;" horiz-adv-x="470" 
d="M380 750q31 17 52 19t23 -12q2 -7 -20 -30.5t-58 -53.5q-28 -22 -28 -30q1 -6 25 -23t47 -54.5t32 -75.5q11 -44 4.5 -93t-28.5 -91q-34 -64 -83.5 -121.5t-97.5 -88.5q-28 -19 -40 -22t-52 -3q-35 0 -48.5 2.5t-27.5 11.5q-37 23 -53.5 68t-16.5 124q0 150 72 256
q54 79 118 68q23 -3 33 8t42 24l32 13l-3 26q-3 18 0 24t17 17q24 18 59 37zM336 573q-15 14 -27 17t-29 -5q-12 -6 -13.5 -18.5t8.5 -24.5q8 -11 8.5 -24t-6.5 -20q-20 -21 -58 13q-42 38 -70 8q-15 -16 -33 -55t-29 -76q-13 -47 -12.5 -113t14.5 -99q26 -64 79 -50
q38 10 79 49.5t94 116.5q35 52 45 96t-3 94q-15 55 -47 91z" />
    <glyph glyph-name="Ocircumflex" unicode="&#xd4;" horiz-adv-x="437" 
d="M301 748q32 19 47 21t30.5 -10.5t30.5 -43.5t8 -38q-6 -8 -25.5 -7.5t-30.5 7.5q-11 10 -53 6q-25 -2 -35 -1t-15 7q-19 23 43 59zM236 603q99 17 166 -97q18 -31 21.5 -44t3.5 -49q0 -49 -4.5 -67t-53 -67t-86.5 -75q-50 -34 -83.5 -47.5t-70 -14t-60 11t-40.5 38.5
q-29 43 -13 103t89 182q44 74 67.5 96.5t63.5 29.5zM267 520q-23 24 -30.5 24t-29 -25t-36.5 -50q-17 -32 -35 -62q-51 -84 -51 -150q0 -25 2.5 -34t11.5 -18q10 -9 16.5 -9.5t26.5 3.5q28 7 45.5 16t52.5 35q68 50 97.5 90t26.5 78q-3 33 -13 48t-34 22q-27 8 -50 32z" />
    <glyph glyph-name="Odieresis" unicode="&#xd6;" horiz-adv-x="494" 
d="M326 778q6 16 11.5 19t30.5 3q26 0 30.5 -2.5t4.5 -15.5q0 -18 19 -42q17 -21 14 -32t-28 -17q-18 -5 -47.5 -2t-39.5 11q-7 6 -5.5 28.5t10.5 49.5zM251 618q16 6 45.5 -0.5t42.5 -18.5q12 -11 42 -16q27 -3 42.5 -12.5t32.5 -32.5q39 -54 24 -156q-9 -61 -41.5 -113.5
t-105.5 -123.5q-53 -52 -79.5 -66.5t-85.5 -22.5q-30 -4 -41.5 -2t-39.5 16q-43 21 -60 52.5t-17 91.5t30 143t77 152q22 31 59 66t53 38q17 4 22 5zM306 537q-7 16 -28 18q-35 2 -72.5 -39t-84.5 -137q-33 -65 -42.5 -130.5t8.5 -96.5q13 -20 32.5 -31.5t38.5 -8.5
q53 8 120.5 68t104.5 133q8 16 15 37.5t11 42.5t5.5 39t-0.5 29.5t-8 11.5q-9 0 -9 -6q0 -15 -27 -22t-38 6q-6 7 -12 39q-5 27 -14 47z" />
    <glyph glyph-name="Ugrave" unicode="&#xd9;" horiz-adv-x="495" 
d="M308 738q7 9 27.5 8t30.5 -11q13 -12 22 -31q11 -22 28 -42q14 -18 13.5 -29.5t-15.5 -11.5q-23 0 -53.5 23.5t-47 52t-5.5 41.5zM90 567q8 11 27.5 12.5t28.5 -8.5q5 -6 3 -17t-14 -42q-33 -85 -47.5 -159.5t-6.5 -119.5q14 -78 31 -99.5t51 -3.5q12 6 63.5 58.5
t81.5 88.5q27 33 55.5 82t44.5 92q33 85 60 80q6 -1 12 -8q15 -19 -22 -134q-15 -48 -19 -72.5t-6 -92.5q-5 -96 -9 -100t-19 3q-21 12 -37 78q-6 22 -16 21.5t-28 -22.5q-35 -44 -70 -78t-54 -42q-29 -13 -70.5 -13t-58.5 12q-32 24 -50 94q-10 37 -11 60t6 59
q14 95 33 150q15 43 24 74q10 34 17 47z" />
    <glyph glyph-name="Uacute" unicode="&#xda;" horiz-adv-x="528" 
d="M403 795q0 -3 -38.5 -49t-38.5 -48q0 -5 -25 -23q-27 -20 -55 -18t-28 23q0 9 53 63l52 56h40q40 0 40 -4zM101 553q9 12 28 14.5t29 -6.5q7 -7 6.5 -20t-7.5 -24q-9 -13 -16 -35q-2 -7 -19.5 -54.5t-22.5 -69.5q-21 -106 -23 -144.5t11 -61.5q21 -34 65 -10
q19 10 106.5 100.5t108.5 121.5q19 30 48.5 87t29.5 66q0 8 12 23q11 14 30.5 16t28.5 -9q6 -7 -5 -45.5t-53 -153.5q-15 -44 -18.5 -63t-3.5 -65q1 -68 3 -81q2 -9 -1 -12t-16 -4q-18 -2 -28.5 6t-21.5 32q-11 26 -7 49q2 15 1 20.5t-7 7.5q-10 4 -86 -70
q-45 -45 -66 -61.5t-39 -22.5q-43 -15 -81.5 -6t-60.5 39q-15 19 -16 80.5t11 115.5q28 118 45 153q13 25 18 50q5 22 17 37z" />
    <glyph glyph-name="Ucircumflex" unicode="&#xdb;" horiz-adv-x="500" 
d="M272 794q9 8 26.5 5.5t24.5 -12.5q12 -20 35.5 -64.5t23.5 -48.5q0 -5 -20.5 -5t-43.5 21t-27.5 21t-39.5 -33q-49 -46 -70 -26q-7 8 -7 19q0 13 20.5 42.5t43.5 50.5q7 6 15 13t13 11.5t6 5.5zM59 585q10 6 22.5 6.5t19.5 -6.5q8 -7 6.5 -31.5t-13.5 -83.5t-15 -127.5
t6 -85.5t27.5 -34.5t27.5 -17.5q19 0 59.5 26.5t81.5 65.5q49 48 68.5 75t38.5 77q27 69 42.5 94t32.5 25q27 0 27 -37t-27 -92q-24 -49 -29.5 -71.5t-8.5 -83.5q-5 -73 -13 -82q-5 -6 -9 -5t-16 12q-17 16 -24 39t-15 26q-7 4 -42 -28q-67 -65 -107 -81q-23 -10 -65 -10
t-57 10q-17 11 -35.5 40t-25.5 56q-8 29 -5 88t15 107q11 47 11 66.5t6.5 37t15.5 25.5z" />
    <glyph glyph-name="Udieresis" unicode="&#xdc;" horiz-adv-x="470" 
d="M235 701q8 10 34 10t30 -9q3 -10 -8 -22q-16 -18 -44 -7q-23 9 -15 24q1 2 3 4zM414 690q-6 -4 -9 4q1 4 5 5q8 0 9.5 -2.5t-5.5 -6.5zM91 560q11 8 18 7t19 -14l14 -14l-16 -47q-15 -45 -24 -70q-16 -45 -24 -122t4 -88q11 -12 37.5 -7t53.5 23q66 43 125 121.5
t87 157.5q10 32 18 40.5t26 8.5q29 0 30.5 -20t-24.5 -87q-40 -103 -48.5 -137t-13.5 -106q-5 -68 -15 -77q-21 -22 -38 18q-8 19 -12 49q-5 41 -17 43.5t-50 -31.5q-72 -64 -137 -65q-28 -1 -45 7.5t-34 31.5q-23 31 -12 128t48 194q18 47 30 56z" />
    <glyph glyph-name="germandbls" unicode="&#xdf;" horiz-adv-x="523" 
d="M361 715q42 25 79.5 19t59.5 -41q9 -14 11 -31t2 -73q0 -55 -2.5 -75t-11.5 -41q-18 -49 -72 -123q-20 -28 -15 -35q17 -22 22.5 -34t7.5 -29q7 -48 -15 -96.5t-60 -69.5q-39 -21 -85.5 -13.5t-50.5 36.5q-2 19 9 24.5t46 2.5q32 -3 39.5 -1t21.5 17q32 34 32 77
q0 14 -19 33t-39 23q-28 6 -30 21t23 29q76 40 119 145q12 29 14.5 46.5t2.5 59.5q0 45 -2 56t-12 21q-10 9 -15 10t-18 -4q-20 -8 -40 -38q-22 -30 -59.5 -91.5t-41.5 -74.5q-4 -14 -28 -61q-21 -42 -78 -202q-23 -60 -46 -146t-23 -111q0 -10 -5.5 -12t-32.5 -2h-39v21
q0 18 45.5 160t71.5 203q50 123 96 214q74 148 138 186z" />
    <glyph glyph-name="agrave" unicode="&#xe0;" horiz-adv-x="357" 
d="M208 630q6 8 23.5 9t30.5 -6q12 -6 50 -63q17 -25 25.5 -38.5t9.5 -22.5t-4.5 -12.5t-18.5 -4.5q-10 -2 -21 6t-38 35q-74 77 -57 97zM175 485q18 4 39 1t34 -11t41 -49q25 -37 26 -58t-21 -56q-17 -27 -19 -47.5t6 -77.5q1 -10 -2.5 -12.5t-17.5 -4.5q-14 -1 -21 2.5
t-17 16.5q-13 18 -25 20.5t-33 -8.5q-22 -12 -61 -11.5t-54 12.5q-22 17 -31 33.5t-9 39.5q1 54 57.5 126t107.5 84zM226 411q-18 26 -26 26q-17 0 -48.5 -31t-56 -71t-24.5 -63q0 -36 37 -31q41 5 90 52q38 37 44 61.5t-16 56.5z" />
    <glyph glyph-name="aacute" unicode="&#xe1;" horiz-adv-x="379" 
d="M339 671q44 11 25 -17q-9 -13 -31 -34q-40 -37 -57 -47.5t-36 -10.5q-21 0 -29 8.5t0 23.5q5 10 56.5 41t71.5 36zM142 485q26 12 50.5 11.5t39.5 -13.5q16 -15 18 -44q3 -22 6 -27t17 -7q29 -6 31 -23.5t-20 -75.5q-12 -35 -15.5 -77t4.5 -64q4 -13 -5 -17
q-29 -11 -54 27q-15 24 -21 24t-29 -14q-20 -14 -48 -18.5t-53 1.5q-34 10 -47 47.5t1 89.5q14 58 50.5 110.5t74.5 69.5zM184 389q0 43 -10.5 47t-41.5 -28q-26 -27 -43 -76q-15 -45 -15 -67t13 -35q15 -13 25 -13q11 0 27.5 9.5t30.5 24.5q13 14 33 44.5t20 36.5
q0 7 -20 16q-14 6 -16.5 12t-2.5 29z" />
    <glyph glyph-name="acircumflex" unicode="&#xe2;" horiz-adv-x="361" 
d="M232 613q43 29 64.5 25t42.5 -46q22 -42 7 -67q-9 -15 -26 -5q-13 6 -27 27q-13 21 -21 21t-37 -30q-25 -26 -42.5 -33.5t-32.5 0.5q-14 6 -16 16q-2 11 26 40t62 52zM167 468q29 11 58 -10.5t51 -68.5q34 -76 3 -143q-16 -33 -19 -70q-3 -38 -6.5 -41t-29.5 7
q-20 7 -26.5 6.5t-23.5 -11.5q-21 -16 -53 -16q-58 0 -94 67q-24 44 -13.5 93.5t57.5 112.5q26 34 44.5 48.5t51.5 25.5zM189 406q-7 9 -17 4.5t-33 -28.5q-37 -38 -54 -79.5t-8 -71.5q14 -42 39 -49t55 25q38 39 37 103q0 20 -7 53.5t-12 42.5z" />
    <glyph glyph-name="adieresis" unicode="&#xe4;" horiz-adv-x="375" 
d="M259 659q18 15 26 15t20 -12q8 -9 8.5 -13t-5.5 -12q-10 -14 -7 -20.5t23 -8.5q23 -3 32 -10q9 -8 9 -27.5t-10 -27.5t-64 -8t-64 8q-18 15 -7 54.5t39 61.5zM157 442q27 16 45 17.5t44 -8.5q40 -15 51 -68q4 -21 15 -35q13 -20 14 -34.5t-8 -41.5q-13 -35 -19 -67
q-6 -33 -14 -41t-42 -11q-21 -2 -34 -7.5t-31 -19.5q-80 -60 -138 -9q-28 24 -30 64t21 101q15 38 55.5 90t70.5 70zM220 386q-9 15 -17 15q-11 0 -39 -24t-42 -45q-15 -24 -31.5 -69t-16.5 -62q0 -19 8.5 -31.5t22.5 -12.5q21 0 61 32.5t68 73.5q10 14 10.5 22.5t-5.5 41.5
q-9 45 -19 59z" />
    <glyph glyph-name="ccedilla" unicode="&#xe7;" horiz-adv-x="328" 
d="M189 432q23 16 53.5 17t52.5 -13.5t23 -37.5q0 -20 -18 -25t-43 8q-19 10 -38 0t-61 -54q-78 -81 -82 -148q-3 -26 7.5 -47.5t24.5 -21.5q23 0 56.5 13.5t63.5 34.5q44 30 54 25q13 -9 8 -22.5t-33 -43.5q-25 -26 -32.5 -38t-10.5 -31q-4 -31 -22.5 -59t-42.5 -40
q-24 -11 -37.5 -11.5t-26.5 10.5t-7.5 22t32.5 27q17 9 22 16t6 20l2 21l-34 4q-85 10 -95 88q-3 23 5 60t23 65q10 21 66 80t84 81z" />
    <glyph glyph-name="egrave" unicode="&#xe8;" horiz-adv-x="396" 
d="M244 668q8 8 29 6q20 -2 29 -20t26 -47q14 -24 13.5 -34.5t-15.5 -10.5q-18 0 -37.5 13t-33.5 34q-27 43 -11 59zM249 485q25 2 26 2t23 -5q13 -3 26.5 -22.5t13.5 -35.5q0 -51 -57 -112q-38 -40 -38 -44q0 -13 60 17q19 10 38.5 16t32 5.5t12.5 -6.5q0 -23 -52 -57.5
t-120.5 -61t-113.5 -26.5q-30 0 -55 10t-30 25q-20 51 54 132q99 109 126 133.5t54 29.5zM267 407q0 11 -2.5 14.5t-11.5 3.5q-14 0 -64 -54q-71 -75 -89 -97.5t-18 -37.5q0 -16 8.5 -24t22.5 -6q8 1 10.5 4.5t1.5 12.5q-5 39 -1.5 48.5t25.5 16.5q45 17 81.5 53t36.5 66z
" />
    <glyph glyph-name="eacute" unicode="&#xe9;" horiz-adv-x="311" 
d="M234 622q25 15 45 16t22 -12q2 -8 -49.5 -63.5t-71.5 -66.5q-10 -5 -14.5 -4t-14.5 10q-15 14 -15 22q0 11 37 47.5t61 50.5zM165 445q51 30 93 3q32 -19 36.5 -41t-15.5 -56q-14 -25 -58 -68t-72 -60q-31 -19 -24 -27q3 -3 10 -3q13 0 40 10.5t45 22.5q44 29 55 15
q7 -10 -11 -34q-16 -20 -44 -38t-56 -27q-28 -8 -68 -2q-36 5 -52.5 14.5t-24.5 30.5q-15 36 -4.5 73t52.5 92q29 39 50.5 60t47.5 35zM219 392q-8 9 -14.5 9t-49 -43t-49.5 -56q-6 -13 -5.5 -22.5t7.5 -9.5q6 0 37 22.5t51 41.5q17 16 23.5 33t-0.5 25z" />
    <glyph glyph-name="ecircumflex" unicode="&#xea;" horiz-adv-x="313" 
d="M239 632q15 7 22 6.5t18 -11.5q20 -18 24 -58.5t-13 -50.5q-6 -4 -11 -2t-14 12q-13 15 -23.5 15t-39.5 -14q-35 -18 -55 -11.5t-14 33.5q3 10 37 36t69 45zM178 461q13 4 37.5 1.5t36.5 -8.5q10 -5 16 -30t3 -45q-5 -23 -35 -54q-31 -34 -51.5 -46.5t-58.5 -23.5
q-36 -10 -47 -19.5t-2 -21.5q11 -12 37 -9t56 21q59 34 80.5 40t28.5 -11q3 -9 -27.5 -37.5t-63.5 -46.5q-19 -10 -33 -13t-44 -3q-56 -1 -78 18.5t-23 68.5q-1 37 16 72q22 43 70 89.5t82 57.5zM208 395q-2 9 -11 10q-16 3 -57 -34t-36 -50q3 -9 12.5 -8t35.5 16
q23 12 40.5 33t15.5 33z" />
    <glyph glyph-name="edieresis" unicode="&#xeb;" horiz-adv-x="386" 
d="M195 582q23 4 55 -4t32 -19q0 -7 -29 -20q-38 -16 -55 -11t-17 32q0 11 3 15.5t11 6.5zM331 561q8 8 15.5 6t18.5 -14q15 -15 9 -26q-6 -9 -19.5 -11t-22.5 4q-7 7 -7.5 20.5t6.5 20.5zM170 409q38 13 57 14.5t40 -6.5q31 -13 36.5 -37t-14.5 -55q-14 -21 -66 -59
t-73 -42q-17 -3 -17 -12q0 -7 16 -7t40.5 6t47.5 16q62 29 81 16q13 -10 -16 -35t-57.5 -38t-68.5 -19q-62 -9 -106.5 5.5t-55.5 46.5q-21 65 75 155q22 22 38.5 32t42.5 19zM226 352q0 22 -41 6q-36 -14 -63 -42q-26 -27 -13 -37q3 -3 9 -3q11 0 59.5 34t48.5 42z" />
    <glyph glyph-name="icircumflex" unicode="&#xee;" horiz-adv-x="191" 
d="M58 512q35 24 58.5 19t42.5 -42q12 -22 18.5 -51.5t0.5 -35.5q-20 -20 -56 21l-24 29l-18 -10q-19 -11 -31 -10t-24 14q-9 10 -10 14.5t5 15.5q7 16 38 36zM56 335q6 7 26 6.5t26 -8.5q16 -19 -15 -85q-16 -35 -29 -81q-15 -57 -31 -57q-5 0 -12 7q-13 13 -10.5 53
t20.5 94q19 61 25 71z" />
    <glyph glyph-name="idieresis" unicode="&#xef;" horiz-adv-x="326" 
d="M103.5 632q6.5 7 10.5 7t25 -7q13 -3 18 -7.5t5 -12.5q0 -26 -33 -26q-18 0 -25 7t-7 19.5t6.5 19.5zM251 614q11 11 30.5 13t28.5 -7q13 -13 1 -35.5t-31 -22.5q-10 0 -25.5 12t-15.5 21q0 6 12 19zM56 409q25 10 44 -8l13 -13l-11 -39q-5 -16 -34 -170q-5 -24 -15 -30
q-7 -4 -11.5 -2.5t-13.5 11.5q-17 20 -18 52.5t12 97.5q12 60 18.5 78.5t15.5 22.5z" />
    <glyph glyph-name="oacute" unicode="&#xf3;" horiz-adv-x="364" 
d="M300 614q21 5 37.5 2.5t16.5 -10.5q0 -9 -29.5 -29t-74.5 -42q-52 -25 -71 -29t-32 8q-11 11 -12.5 25.5t6.5 20.5q9 5 75 27.5t84 26.5zM83 398q21 28 67.5 44.5t99.5 16.5q16 -1 23.5 -6.5t23.5 -29.5l24 -35v-60q0 -52 -7.5 -72.5t-46.5 -72.5q-49 -66 -90 -85.5
t-93 -2.5q-27 10 -41.5 28t-24.5 54q-7 25 -7.5 38.5t3.5 33.5q6 26 29.5 77t39.5 72zM226 365q-31 23 -48.5 24t-36.5 -19q-50 -52 -54 -137q-1 -32 0.5 -42t11.5 -20q22 -23 53 -10t59 56q18 29 33 63.5t15 48.5q0 11 -33 36z" />
    <glyph glyph-name="ocircumflex" unicode="&#xf4;" horiz-adv-x="364" 
d="M251 619q29 20 53.5 21t38.5 -17q9 -11 10.5 -21t-1.5 -42q-3 -41 -8.5 -58t-15.5 -21q-9 -4 -21 8t-18 32q-7 23 -13 23q-5 0 -40 -33q-21 -20 -32 -26t-23 -6q-39 0 -31 32q4 16 38.5 52.5t62.5 55.5zM238 430q4 6 22 6.5t30 -5.5q12 -7 21.5 -41t5.5 -59
q-12 -84 -43 -132q-58 -89 -95 -120.5t-83 -31.5q-44 0 -65 22t-21 67q0 31 20 87t48 103q22 38 33 49.5t32 22.5t31 12.5t27 -2.5q33 -8 35 -3q0 1 -1 7q-1 10 3 18zM212 327q-25 27 -32 27q-14 0 -42 -49t-48 -109q-16 -46 -13.5 -66t25.5 -20q21 0 70 62t59 101l8 27z
" />
    <glyph glyph-name="odieresis" unicode="&#xf6;" horiz-adv-x="328" 
d="M195 614q5 9 11.5 11.5t19.5 0.5q14 -1 20 -5.5t14 -18.5q12 -23 29 -34q16 -13 16 -32q0 -14 -3.5 -17.5t-18.5 -6.5q-33 -5 -64.5 8t-36.5 34q-7 29 13 60zM160 449q25 6 65 3t53 -12q16 -10 28 -38t12 -54q1 -50 -33 -100t-97 -91q-27 -18 -39.5 -22t-40.5 -4
q-33 0 -50 8t-36 32q-7 10 -9.5 22.5t-2.5 39.5q0 30 3.5 44.5t15.5 37.5q22 40 46 68q27 33 27 37q0 5 19 14t39 15zM178 382q-7 7 -13 7q-9 0 -28.5 -23.5t-33.5 -51.5q-12 -23 -15.5 -38t-3.5 -41v-42h20q14 0 25.5 6t48.5 31q30 21 50 58.5t16 65.5q-1 9 -6.5 12.5
t-23.5 4.5q-28 4 -36 11z" />
    <glyph glyph-name="ugrave" unicode="&#xf9;" horiz-adv-x="336" 
d="M186 632q5 6 17.5 7t20.5 -4q10 -7 39.5 -49t33.5 -57q6 -17 2 -28t-16 -11q-10 0 -40.5 29.5t-45.5 53.5q-28 43 -11 59zM72 392q13 9 27.5 8t21.5 -11q5 -10 -16 -56q-22 -47 -22 -80q0 -42 16.5 -47.5t59.5 22.5q35 22 53 46q26 34 50.5 57t36.5 23q20 0 24.5 -13.5
t-1.5 -54.5q-9 -59 -13 -92q-5 -44 -12 -52q-9 -12 -22.5 5.5t-16.5 31.5q-3 17 -11.5 25.5t-16.5 2.5q-34 -25 -66.5 -43.5t-45.5 -20.5q-37 -7 -66.5 12t-39.5 56q-8 27 15 96t45 85z" />
    <glyph glyph-name="uacute" unicode="&#xfa;" horiz-adv-x="403" 
d="M352 568q13 6 20.5 8.5t12 2.5t6.5 -2.5t2 -8.5q0 -27 -36 -69q-24 -30 -36 -42q-10 -14 -25 -14t-28 14.5t-10 25.5q5 14 39 44.5t55 40.5zM101 425q16 16 35 11t19 -24q0 -11 -18 -42q-35 -61 -52 -127q-20 -79 25 -73q3 1 6 1q12 4 61 50.5t77 80.5q15 19 35 15.5
t20 -25.5q0 -12 -14 -57q-12 -39 -24 -92q-8 -33 -11.5 -39.5t-14.5 -4.5q-16 1 -27 24q-4 9 -10 15.5t-10 6.5q-9 0 -39 -18q-28 -19 -61 -19q-58 0 -78 40.5t1 114.5q9 30 38.5 90t41.5 72z" />
    <glyph glyph-name="ucircumflex" unicode="&#xfb;" horiz-adv-x="339" 
d="M201 602q16 17 25 21t26 4q29 0 47 -18t18 -47q0 -24 -8 -29t-25 8q-20 15 -24 15q-5 0 -34 -27q-30 -27 -37 -27t-21 15l-14 16l11 22q13 24 36 47zM89 454q10 6 22.5 6.5t19.5 -6.5q9 -10 5.5 -28t-22.5 -56q-64 -126 -28 -163q19 -20 41.5 -10t70.5 60q45 46 56 74
q11 32 23.5 45t31.5 13q14 0 17 -3.5t3 -21.5q0 -27 -22 -76q-16 -38 -18 -53.5t0 -66.5l3 -70h-14q-26 0 -50 47q-5 10 -11.5 17t-10.5 7q-10 0 -37 -17q-41 -26 -78 -22.5t-59 34.5q-19 25 -21.5 50t8.5 71q10 43 34.5 101.5t35.5 67.5z" />
    <glyph glyph-name="udieresis" unicode="&#xfc;" horiz-adv-x="326" 
d="M214 588q10 4 22 3t17 -7q6 -7 8 -31q1 -16 4.5 -20.5t18.5 -8.5q21 -5 26 -11t-3 -20q-8 -16 -28 -27t-39 -11q-20 0 -38.5 16t-19.5 33q-2 27 8 52.5t24 31.5zM92 379q7 9 20.5 10t21.5 -7q16 -16 -13 -75q-20 -39 -33 -93q-9 -35 -9.5 -45.5t5.5 -16.5q5 -5 10 -5.5
t16 4.5q19 8 60 54t75 97q32 48 56 39q23 -10 11 -62q-2 -13 -8 -27q-9 -26 -17 -60q-8 -35 -18 -46q-7 -8 -11 -8.5t-12 4.5q-15 11 -29.5 7.5t-43.5 -25.5q-52 -40 -80.5 -47.5t-52.5 12.5q-23 20 -28.5 57.5t7.5 82.5q8 27 35 82.5t38 67.5z" />
    <glyph glyph-name="eogonek" unicode="&#x119;" horiz-adv-x="371" 
d="M246 508q38 7 71 -10.5t42 -47.5q12 -48 -30 -114q-30 -48 -131 -98q-29 -16 -43.5 -19.5t-40.5 -3.5q-41 0 -44 -4q-5 -9 5.5 -33.5t24.5 -38.5l20 -19l66 3q66 2 66 -3q0 -10 -22.5 -32t-37.5 -28q-25 -11 -30 -27q-6 -16 -28 -34q-18 -17 -17 -27t23 -20
q40 -16 13 -20q-11 -1 -36 -1h-53l-10 26q-21 49 -3 70q6 9 27 22q19 14 19 22t-30 29q-28 20 -38 36t-16 49q-8 46 8 93.5t61 107.5q31 41 56 65q21 19 53.5 36t54.5 21zM299 424q0 25 -38 25q-37 0 -83 -40t-75 -97q-13 -24 -11 -30t22.5 -6t69.5 23t69 42
q15 13 30.5 41.5t15.5 41.5z" />
    <glyph glyph-name="quoteright" unicode="&#x2019;" horiz-adv-x="123" 
d="M33 611q4 9 6.5 15t7 16.5t8 17.5t9 15.5t10.5 13t10 8t11 2t11 -6.5q9 -9 6.5 -32.5t-14.5 -52.5q-21 -48 -31 -77q-14 -36 -25 -46t-22 2q-25 25 13 125z" />
    <glyph glyph-name="quotedblleft" unicode="&#x201c;" horiz-adv-x="228" 
d="M74 212q9 11 30 11q15 0 17 -3t0 -18q-3 -18 -18 -43q-13 -20 -28.5 -59t-19.5 -62q-3 -17 -11.5 -26.5t-18 -8t-14.5 14.5q-7 18 17.5 94.5t45.5 99.5zM175 152q16 11 29 11q9 0 11.5 -3.5t2.5 -16.5q0 -20 -14 -38q-13 -14 -28 -41q-13 -25 -29.5 -37.5t-23.5 -3.5
q-11 13 9 62t43 67z" />
    <glyph glyph-name="quotedblright" unicode="&#x201d;" horiz-adv-x="205" 
d="M78 724q8 10 21.5 10.5t21.5 -8.5q12 -16 -7 -61q-11 -28 3 -22q7 3 19 14q37 32 56 9q16 -19 -43 -83q-29 -33 -40 -59q-11 -28 -19 -31q-7 -2 -38 5q-32 8 -39 25t4 62q7 33 27 78.5t34 60.5z" />
    <glyph glyph-name="bullet" unicode="&#x2022;" horiz-adv-x="181" 
d="M80 412q19 5 39.5 0.5t32.5 -14.5q16 -16 18.5 -45.5t-10 -55t-32.5 -31.5q-37 -10 -68.5 0t-44.5 36q-5 11 -5 18.5t6 23.5q11 27 28 45.5t36 22.5z" />
    <glyph glyph-name="Euro" unicode="&#x20ac;" horiz-adv-x="394" 
d="M283 627q44 8 72.5 -10t28.5 -52q0 -66 -53 -18q-28 26 -53 19t-72 -54q-38 -39 -34 -47q3 -8 34 -12q47 -6 47 -25t-57 -26q-86 -12 -79 -36q2 -5 7 -11q6 -5 13.5 -6t25.5 3q67 12 67 -14q0 -25 -57 -39q-37 -9 -46.5 -23.5t8.5 -37.5q14 -18 33.5 -25.5t51.5 -7.5
q37 0 59 8t48 32q23 20 32.5 23.5t17.5 -4.5q14 -15 -23.5 -56t-77.5 -55q-65 -22 -123 -0.5t-91 79.5q-17 31 -35 43q-18 13 -17 28.5t20 37.5q19 21 20 32.5t-14 28.5q-20 24 -13 41t39 22q16 2 30.5 13.5t53.5 51.5q47 48 78 70t59 27z" />
  </font>
</defs>
</svg>
